<svg xmlns="http://www.w3.org/2000/svg" xmlns:xlink="http://www.w3.org/1999/xlink" fill="none" version="1.1"
  width="41.90787887573242" height="36.71953582763672" viewBox="0 0 41.90787887573242 36.71953582763672">
  <g>
    <path
      d="M26.7711,1.17259C26.7711,1.17259,26.7552,2.34436,26.7552,2.34436C26.7552,2.34436,26.7575,2.34439,26.7575,2.34439C26.7575,2.34439,26.7711,1.17259,26.7711,1.17259C26.7711,1.17259,26.7711,1.17259,26.7711,1.17259ZM33.8415,5.86008C33.8415,5.86008,32.7674,6.32875,32.7674,6.32875C32.9538,6.75586,33.3755,7.03196,33.8415,7.03196C33.8415,7.03196,33.8415,5.86008,33.8415,5.86008C33.8415,5.86008,33.8415,5.86008,33.8415,5.86008ZM40.736,5.86008C40.736,5.86008,41.5646,6.68872,41.5646,6.68872C41.8997,6.35358,42,5.84953,41.8186,5.41163C41.6372,4.97374,41.2099,4.68821,40.736,4.68821C40.736,4.68821,40.736,5.86008,40.736,5.86008C40.736,5.86008,40.736,5.86008,40.736,5.86008ZM34.4274,12.1687C34.4274,12.1687,33.5988,11.34,33.5988,11.34C33.3974,11.5414,33.2761,11.8093,33.2579,12.0935C33.2579,12.0935,34.4274,12.1687,34.4274,12.1687C34.4274,12.1687,34.4274,12.1687,34.4274,12.1687ZM9.48597,35.5477C9.48597,35.5477,9.48654,34.3758,9.48654,34.3758C9.48654,34.3758,9.48597,34.3758,9.48597,34.3758C9.48597,34.3758,9.48597,35.5477,9.48597,35.5477C9.48597,35.5477,9.48597,35.5477,9.48597,35.5477ZM1.67346,33.2039C1.67346,33.2039,1.26199,32.1066,1.26199,32.1066C0.927137,32.2322,0.667949,32.5038,0.558168,32.8441C0.448387,33.1845,0.500031,33.5563,0.698404,33.8539C0.698404,33.8539,1.67346,33.2039,1.67346,33.2039C1.67346,33.2039,1.67346,33.2039,1.67346,33.2039ZM11.0485,26.1727C11.0485,26.1727,12.0235,26.8227,12.0235,26.8227C12.21,26.543,12.2674,26.1967,12.1811,25.8719C12.0948,25.5469,11.8732,25.2747,11.5725,25.1244C11.5725,25.1244,11.0485,26.1727,11.0485,26.1727C11.0485,26.1727,11.0485,26.1727,11.0485,26.1727ZM1.67346,2.73508C1.67346,2.73508,2.5021,1.90645,2.5021,1.90645C2.19389,1.59824,1.74009,1.48655,1.32405,1.61652C0.908001,1.74648,0.598462,2.09662,0.52049,2.52546C0.52049,2.52546,1.67346,2.73508,1.67346,2.73508C1.67346,2.73508,1.67346,2.73508,1.67346,2.73508ZM18.861,12.1101C18.861,12.1101,18.6683,13.266,18.6683,13.266C19.0082,13.3226,19.3557,13.2269,19.6185,13.0043C19.8813,12.7816,20.0329,12.4546,20.0329,12.1101C20.0329,12.1101,18.861,12.1101,18.861,12.1101C18.861,12.1101,18.861,12.1101,18.861,12.1101ZM20.0329,8.98508C20.0329,5.33978,23.1135,2.2947,26.7552,2.34435C26.7552,2.34435,26.7871,0.00082179,26.7871,0.00082179C21.8349,-0.0667079,17.6891,4.03664,17.6891,8.98508C17.6891,8.98508,20.0329,8.98508,20.0329,8.98508C20.0329,8.98508,20.0329,8.98508,20.0329,8.98508ZM26.7575,2.34439C28.0366,2.35915,29.2843,2.74302,30.3504,3.44985C30.3504,3.44985,31.6455,1.49641,31.6455,1.49641C30.203,0.54012,28.5152,0.0207702,26.7846,0.000792103C26.7846,0.000792103,26.7575,2.34439,26.7575,2.34439C26.7575,2.34439,26.7575,2.34439,26.7575,2.34439ZM30.3504,3.44985C31.4165,4.15666,32.2558,5.15636,32.7674,6.32875C32.7674,6.32875,34.9155,5.39141,34.9155,5.39141C34.2233,3.80524,33.0879,2.4527,31.6455,1.49641C31.6455,1.49641,30.3504,3.44985,30.3504,3.44985C30.3504,3.44985,30.3504,3.44985,30.3504,3.44985ZM33.8415,7.03196C33.8415,7.03196,40.736,7.03196,40.736,7.03196C40.736,7.03196,40.736,4.68821,40.736,4.68821C40.736,4.68821,33.8415,4.68821,33.8415,4.68821C33.8415,4.68821,33.8415,7.03196,33.8415,7.03196C33.8415,7.03196,33.8415,7.03196,33.8415,7.03196ZM39.9074,5.03144C39.9074,5.03144,33.5988,11.34,33.5988,11.34C33.5988,11.34,35.256,12.9973,35.256,12.9973C35.256,12.9973,41.5646,6.68872,41.5646,6.68872C41.5646,6.68872,39.9074,5.03144,39.9074,5.03144C39.9074,5.03144,39.9074,5.03144,39.9074,5.03144ZM33.2579,12.0935C32.8699,18.1333,30.1963,23.7986,25.7807,27.9377C25.7807,27.9377,27.3835,29.6477,27.3835,29.6477C32.2338,25.1011,35.1707,18.8781,35.5968,12.2438C35.5968,12.2438,33.2579,12.0935,33.2579,12.0935C33.2579,12.0935,33.2579,12.0935,33.2579,12.0935ZM25.7807,27.9377C21.3649,32.0767,15.5388,34.3788,9.48654,34.3758C9.48654,34.3758,9.48539,36.7195,9.48539,36.7195C16.1334,36.7228,22.5332,34.1941,27.3835,29.6477C27.3835,29.6477,25.7807,27.9377,25.7807,27.9377C25.7807,27.9377,25.7807,27.9377,25.7807,27.9377ZM9.48597,34.3758C6.50815,34.3758,4.74073,33.818,3.76004,33.3275C3.26856,33.0819,2.96529,32.8484,2.7992,32.6991C2.71574,32.6239,2.66551,32.5688,2.64256,32.5419C2.63105,32.5284,2.62629,32.522,2.62754,32.5238C2.62816,32.5245,2.63028,32.5273,2.63381,32.5323C2.63557,32.5348,2.63769,32.5378,2.64014,32.5414C2.64137,32.5431,2.64269,32.5452,2.64408,32.5472C2.64478,32.5483,2.6455,32.5492,2.64624,32.5503C2.64661,32.5509,2.64718,32.5517,2.64736,32.552C2.64794,32.553,2.64852,32.5538,1.67346,33.2039C0.698404,33.8539,0.698996,33.8547,0.699596,33.8556C0.699804,33.8559,0.700412,33.8569,0.700829,33.8575C0.701665,33.8588,0.702527,33.86,0.703418,33.8614C0.705199,33.8639,0.707091,33.8667,0.709095,33.8697C0.713099,33.8755,0.717552,33.8819,0.722463,33.8888C0.732287,33.9027,0.743943,33.9186,0.757535,33.9366C0.784724,33.9727,0.81963,34.0166,0.863054,34.0672C0.949966,34.1686,1.07064,34.2966,1.23132,34.4411C1.55351,34.7311,2.0315,35.0838,2.71188,35.4239C4.07494,36.1055,6.21378,36.7195,9.48597,36.7195C9.48597,36.7195,9.48597,34.3758,9.48597,34.3758C9.48597,34.3758,9.48597,34.3758,9.48597,34.3758ZM1.67346,33.2039C2.08494,34.3011,2.08522,34.3009,2.08554,34.3009C2.08567,34.3008,2.08601,34.3006,2.08628,34.3006C2.08682,34.3003,2.08746,34.3002,2.0882,34.2998C2.08967,34.2994,2.09152,34.2986,2.09375,34.2978C2.0982,34.2961,2.10415,34.2938,2.11158,34.2909C2.12643,34.2853,2.14715,34.2772,2.17347,34.2669C2.22609,34.2461,2.3011,34.2161,2.39619,34.1769C2.5863,34.0981,2.85708,33.982,3.18994,33.8284C3.85476,33.5216,4.77223,33.0628,5.79201,32.4509C7.81262,31.2386,10.3233,29.373,12.0235,26.8227C12.0235,26.8227,10.0734,25.5225,10.0734,25.5225C8.64865,27.6597,6.4718,29.3098,4.58617,30.4411C3.65283,31.0011,2.81247,31.4213,2.20777,31.7003C1.90587,31.8397,1.66395,31.9433,1.50005,32.0111C1.41814,32.045,1.35582,32.07,1.31536,32.0859C1.29514,32.0938,1.28039,32.0995,1.2714,32.103C1.2669,32.1047,1.26384,32.1059,1.26226,32.1064C1.26147,32.1067,1.26105,32.1069,1.26101,32.1069C1.26098,32.1069,1.26105,32.1069,1.26122,32.1069C1.2613,32.1069,1.26149,32.1067,1.26153,32.1067C1.26175,32.1067,1.26199,32.1066,1.67346,33.2039C1.67346,33.2039,1.67346,33.2039,1.67346,33.2039ZM11.0485,26.1727C11.5725,25.1244,11.5731,25.1247,11.5736,25.125C11.5737,25.125,11.5742,25.1253,11.5744,25.1253C11.5749,25.1256,11.5751,25.1258,11.5752,25.1258C11.5753,25.1258,11.5747,25.1255,11.5734,25.1248C11.5708,25.1234,11.5652,25.1206,11.5569,25.1163C11.5401,25.1075,11.5122,25.0927,11.4739,25.0716C11.3974,25.0294,11.2795,24.9625,11.1271,24.8697C10.822,24.6838,10.3798,24.3952,9.85376,23.9948C8.80044,23.1934,7.42058,21.952,6.13251,20.2041C3.5777,16.7368,1.32517,11.2016,2.82644,2.94472C2.82644,2.94472,0.52049,2.52546,0.52049,2.52546C-1.10325,11.456,1.33172,17.6397,4.24567,21.5944C5.69198,23.5572,7.24179,24.9525,8.43458,25.8602C9.03161,26.3144,9.54151,26.6481,9.90786,26.8713C10.0911,26.983,10.2388,27.067,10.3438,27.1248C10.3963,27.1538,10.4382,27.1761,10.4685,27.192C10.4837,27.2,10.4961,27.2064,10.5054,27.2111C10.5101,27.2134,10.514,27.2155,10.5172,27.2172C10.5187,27.218,10.5202,27.2186,10.5214,27.2192C10.522,27.2195,10.5227,27.2198,10.523,27.22C10.5237,27.2205,10.5244,27.2208,11.0485,26.1727C11.0485,26.1727,11.0485,26.1727,11.0485,26.1727ZM1.67346,2.73508C0.844823,3.56372,0.845054,3.56396,0.845316,3.56422C0.845445,3.56435,0.845737,3.56464,0.845991,3.56489C0.846501,3.56541,0.847129,3.56603,0.847877,3.56678C0.849374,3.56827,0.851349,3.57024,0.853796,3.57266C0.858693,3.57752,0.865487,3.58424,0.874154,3.59277C0.891487,3.60983,0.916316,3.63413,0.948452,3.66524C1.01272,3.72744,1.10624,3.81691,1.22747,3.93016C1.4699,4.15664,1.82348,4.47857,2.27597,4.86822C3.18023,5.64689,4.48353,6.69946,6.08769,7.80233C9.27908,9.99641,13.7405,12.4447,18.6683,13.266C18.6683,13.266,19.0536,10.9542,19.0536,10.9542C14.6064,10.213,10.4741,7.97377,7.41548,5.87097C5.89465,4.82539,4.65887,3.82719,3.80533,3.09219C3.37892,2.72501,3.0489,2.42438,2.82747,2.2175C2.71676,2.11409,2.63328,2.03418,2.57853,1.98118C2.55115,1.95469,2.53097,1.93492,2.51817,1.92232C2.51177,1.91602,2.50721,1.91152,2.50453,1.90885C2.50318,1.90752,2.50231,1.90665,2.5019,1.90625C2.5017,1.90605,2.50162,1.90596,2.50165,1.90599C2.50166,1.90601,2.50178,1.90612,2.50179,1.90613C2.50193,1.90628,2.5021,1.90645,1.67346,2.73508C1.67346,2.73508,1.67346,2.73508,1.67346,2.73508ZM20.0329,12.1101C20.0329,12.1101,20.0329,8.98508,20.0329,8.98508C20.0329,8.98508,17.6891,8.98508,17.6891,8.98508C17.6891,8.98508,17.6891,12.1101,17.6891,12.1101C17.6891,12.1101,20.0329,12.1101,20.0329,12.1101C20.0329,12.1101,20.0329,12.1101,20.0329,12.1101Z"
      fill="#FFFFFF" fill-opacity="1" />
  </g>
</svg>