<svg xmlns="http://www.w3.org/2000/svg" xmlns:xlink="http://www.w3.org/1999/xlink" fill="none" version="1.1" width="50"
  height="50" viewBox="0 0 50 50">
  <g>
    <g></g>
    <g>
      <path
        d="M6.660152329101562,27.480418359375C6.660152329101562,27.480418359375,7.787122329101562,27.801818359375,7.787122329101562,27.801818359375C7.875472329101562,27.491918359375,7.832342329101563,27.159318359375,7.667892329101562,26.882218359375C7.667892329101562,26.882218359375,6.660152329101562,27.480418359375,6.660152329101562,27.480418359375C6.660152329101562,27.480418359375,6.660152329101562,27.480418359375,6.660152329101562,27.480418359375ZM11.582032329101562,32.402218359375C11.582032329101562,32.402218359375,12.180172329101563,31.394618359375,12.180172329101563,31.394618359375C11.903112329101562,31.230118359375,11.570542329101562,31.186918359375,11.260702329101562,31.275418359375C11.260702329101562,31.275418359375,11.582032329101562,32.402218359375,11.582032329101562,32.402218359375C11.582032329101562,32.402218359375,11.582032329101562,32.402218359375,11.582032329101562,32.402218359375ZM6.718752329101562,33.789018359375C6.718752329101562,33.789018359375,7.035932329101563,34.917118359374996,7.035932329101563,34.917118359374996C7.035932329101563,34.917118359374996,7.0400923291015625,34.916018359375,7.0400923291015625,34.916018359375C7.0400923291015625,34.916018359375,6.718752329101562,33.789018359375,6.718752329101562,33.789018359375C6.718752329101562,33.789018359375,6.718752329101562,33.789018359375,6.718752329101562,33.789018359375ZM5.273442329101562,32.343618359375C5.273442329101562,32.343618359375,4.146479329101562,32.022418359374996,4.146479329101562,32.022418359374996C4.146479329101562,32.022418359374996,4.145307329101563,32.026518359375004,4.145307329101563,32.026518359375004C4.145307329101563,32.026518359375004,5.273442329101562,32.343618359375,5.273442329101562,32.343618359375C5.273442329101562,32.343618359375,5.273442329101562,32.343618359375,5.273442329101562,32.343618359375ZM7.667892329101562,26.882218359375C6.062372329101562,24.177418359375,5.4996223291015625,20.979318359375,6.085332329101563,17.888818359375C6.085332329101563,17.888818359375,3.7825773291015627,17.452418359375002,3.7825773291015627,17.452418359375002C3.0905303291015627,21.103918359375,3.7554413291015627,24.882618359375,5.652432329101563,28.078518359375C5.652432329101563,28.078518359375,7.667892329101562,26.882218359375,7.667892329101562,26.882218359375C7.667892329101562,26.882218359375,7.667892329101562,26.882218359375,7.667892329101562,26.882218359375ZM6.085332329101563,17.888818359375C6.671042329101562,14.798288359375,8.364932329101563,12.027928359375,10.848842329101561,10.098038359375C10.848842329101561,10.098038359375,9.410862329101562,8.247258359375,9.410862329101562,8.247258359375C6.476012329101563,10.527508359375,4.474624329101562,13.800808359375,3.7825773291015627,17.452418359375002C3.7825773291015627,17.452418359375002,6.085332329101563,17.888818359375,6.085332329101563,17.888818359375C6.085332329101563,17.888818359375,6.085332329101563,17.888818359375,6.085332329101563,17.888818359375ZM10.848842329101561,10.098038359375C13.332752329101563,8.168128359375,16.43586232910156,7.2114783593750005,19.575162329101563,7.407738359375C19.575162329101563,7.407738359375,19.721462329101563,5.068555559375,19.721462329101563,5.068555559375C16.01206232910156,4.836669359375,12.345722329101562,5.966999359375,9.410862329101562,8.247258359375C9.410862329101562,8.247258359375,10.848842329101561,10.098038359375,10.848842329101561,10.098038359375C10.848842329101561,10.098038359375,10.848842329101561,10.098038359375,10.848842329101561,10.098038359375ZM19.575162329101563,7.407738359375C22.71466232910156,7.603998359375,25.674362329101562,8.939668359375,27.898562329101562,11.163878359375001C27.898562329101562,11.163878359375001,29.55596232910156,9.506598359375001,29.55596232910156,9.506598359375001C26.92776232910156,6.878588359375,23.43076232910156,5.300441359375,19.721462329101563,5.068555559375C19.721462329101563,5.068555559375,19.575162329101563,7.407738359375,19.575162329101563,7.407738359375C19.575162329101563,7.407738359375,19.575162329101563,7.407738359375,19.575162329101563,7.407738359375ZM27.898562329101562,11.163878359375001C30.122762329101562,13.388098359375,31.45846232910156,16.347818359374997,31.654662329101562,19.487218359375C31.654662329101562,19.487218359375,33.99386232910156,19.341018359375,33.99386232910156,19.341018359375C33.76206232910157,15.631718359375,32.18386232910156,12.134618359375,29.55596232910156,9.506598359375001C29.55596232910156,9.506598359375001,27.898562329101562,11.163878359375001,27.898562329101562,11.163878359375001C27.898562329101562,11.163878359375001,27.898562329101562,11.163878359375001,27.898562329101562,11.163878359375001ZM31.654662329101562,19.487218359375C31.850962329101563,22.626618359375,30.89436232910156,25.729718359375,28.96436232910156,28.213618359375C28.96436232910156,28.213618359375,30.81516232910156,29.651618359375,30.81516232910156,29.651618359375C33.095462329101565,26.716818359375,34.22576232910156,23.050418359375,33.99386232910156,19.341018359375C33.99386232910156,19.341018359375,31.654662329101562,19.487218359375,31.654662329101562,19.487218359375C31.654662329101562,19.487218359375,31.654662329101562,19.487218359375,31.654662329101562,19.487218359375ZM28.96436232910156,28.213618359375C27.03456232910156,30.697618359375,24.264162329101563,32.391318359375,21.173562329101564,32.977118359375C21.173562329101564,32.977118359375,21.610162329101563,35.279918359375,21.610162329101563,35.279918359375C25.26166232910156,34.587918359374996,28.534962329101564,32.586518359375,30.81516232910156,29.651618359375C30.81516232910156,29.651618359375,28.96436232910156,28.213618359375,28.96436232910156,28.213618359375C28.96436232910156,28.213618359375,28.96436232910156,28.213618359375,28.96436232910156,28.213618359375ZM21.173562329101564,32.977118359375C18.08316232910156,33.562918359375004,14.885062329101563,33.000118359375,12.180172329101563,31.394618359375C12.180172329101563,31.394618359375,10.983892329101563,33.410118359375005,10.983892329101563,33.410118359375005C14.179862329101562,35.306918359375004,17.958462329101565,35.971918359374996,21.610162329101563,35.279918359375C21.610162329101563,35.279918359375,21.173562329101564,32.977118359375,21.173562329101564,32.977118359375C21.173562329101564,32.977118359375,21.173562329101564,32.977118359375,21.173562329101564,32.977118359375ZM11.260702329101562,31.275418359375C11.260702329101562,31.275418359375,6.397422329101563,32.662118359375,6.397422329101563,32.662118359375C6.397422329101563,32.662118359375,7.0400923291015625,34.916018359375,7.0400923291015625,34.916018359375C7.0400923291015625,34.916018359375,11.903372329101563,33.529318359375,11.903372329101563,33.529318359375C11.903372329101563,33.529318359375,11.260702329101562,31.275418359375,11.260702329101562,31.275418359375C11.260702329101562,31.275418359375,11.260702329101562,31.275418359375,11.260702329101562,31.275418359375ZM6.401582329101562,32.660818359375C6.401582329101562,32.660818359375,6.401582329101562,32.660818359375,6.401582329101562,32.660818359375C6.401582329101562,32.660818359375,5.8088823291015625,34.928518359375005,5.8088823291015625,34.928518359375005C6.211642329101562,35.033618359375,6.635182329101562,35.029718359374996,7.035932329101563,34.917118359374996C7.035932329101563,34.917118359374996,6.401582329101562,32.660818359375,6.401582329101562,32.660818359375C6.401582329101562,32.660818359375,6.401582329101562,32.660818359375,6.401582329101562,32.660818359375ZM6.401582329101562,32.660818359375C6.401582329101562,32.660818359375,6.401582329101562,32.660818359375,6.401582329101562,32.660818359375C6.401582329101562,32.660818359375,4.744292329101563,34.318218359374995,4.744292329101563,34.318218359374995C5.038652329101563,34.612518359375,5.406112329101562,34.823218359375005,5.8088823291015625,34.928518359375005C5.8088823291015625,34.928518359375005,6.401582329101562,32.660818359375,6.401582329101562,32.660818359375C6.401582329101562,32.660818359375,6.401582329101562,32.660818359375,6.401582329101562,32.660818359375ZM6.401582329101562,32.660818359375C6.401582329101562,32.660818359375,6.401582329101562,32.660818359375,6.401582329101562,32.660818359375C6.401582329101562,32.660818359375,4.134008329101563,33.253518359375,4.134008329101563,33.253518359375C4.2392843291015625,33.656318359375,4.449933329101563,34.023818359375,4.744292329101563,34.318218359374995C4.744292329101563,34.318218359374995,6.401582329101562,32.660818359375,6.401582329101562,32.660818359375C6.401582329101562,32.660818359375,6.401582329101562,32.660818359375,6.401582329101562,32.660818359375ZM6.401582329101562,32.660818359375C6.401582329101562,32.660818359375,6.401582329101562,32.660818359375,6.401582329101562,32.660818359375C6.401582329101562,32.660818359375,4.145307329101563,32.026518359375004,4.145307329101563,32.026518359375004C4.032635329101563,32.427218359375004,4.028734329101562,32.850818359375,4.134008329101563,33.253518359375C4.134008329101563,33.253518359375,6.401582329101562,32.660818359375,6.401582329101562,32.660818359375C6.401582329101562,32.660818359375,6.401582329101562,32.660818359375,6.401582329101562,32.660818359375ZM6.400402329101563,32.665118359375C6.400402329101563,32.665118359375,7.787122329101562,27.801818359375,7.787122329101562,27.801818359375C7.787122329101562,27.801818359375,5.533202329101563,27.159118359375,5.533202329101563,27.159118359375C5.533202329101563,27.159118359375,4.1464873291015625,32.022418359374996,4.1464873291015625,32.022418359374996C4.1464873291015625,32.022418359374996,6.400402329101563,32.665118359375,6.400402329101563,32.665118359375C6.400402329101563,32.665118359375,6.400402329101563,32.665118359375,6.400402329101563,32.665118359375Z"
        fill="#FFFFFF" fill-opacity="1" />
    </g>
    <g>
      <path
        d="M19.09410581542969,33.967595214843755C18.879895815429688,33.35679521484375,18.21114581542969,33.035395214843746,17.60041981542969,33.249695214843754C16.989687815429686,33.463895214843745,16.668242815429686,34.13259521484375,16.882452215429687,34.743295214843755C16.882452215429687,34.743295214843755,19.09410581542969,33.967595214843755,19.09410581542969,33.967595214843755C19.09410581542969,33.967595214843755,19.09410581542969,33.967595214843755,19.09410581542969,33.967595214843755ZM43.28128581542968,43.16399521484375C43.28128581542968,43.16399521484375,42.959885815429686,44.29109521484375,42.959885815429686,44.29109521484375C42.959885815429686,44.29109521484375,42.964085815429684,44.29219521484375,42.964085815429684,44.29219521484375C42.964085815429684,44.29219521484375,43.28128581542968,43.16399521484375,43.28128581542968,43.16399521484375C43.28128581542968,43.16399521484375,43.28128581542968,43.16399521484375,43.28128581542968,43.16399521484375ZM44.72658581542969,41.71869521484375C44.72658581542969,41.71869521484375,45.85468581542969,41.40149521484375,45.85468581542969,41.40149521484375C45.85468581542969,41.40149521484375,45.85358581542969,41.39729521484375,45.85358581542969,41.39729521484375C45.85358581542969,41.39729521484375,44.72658581542969,41.71869521484375,44.72658581542969,41.71869521484375C44.72658581542969,41.71869521484375,44.72658581542969,41.71869521484375,44.72658581542969,41.71869521484375ZM43.33988581542969,36.85539521484375C43.33988581542969,36.85539521484375,42.33308581542968,36.25559521484375,42.33308581542968,36.25559521484375C42.16778581542969,36.533095214843755,42.12438581542969,36.86619521484375,42.21278581542968,37.17679521484375C42.21278581542968,37.17679521484375,43.33988581542969,36.85539521484375,43.33988581542969,36.85539521484375C43.33988581542969,36.85539521484375,43.33988581542969,36.85539521484375,43.33988581542969,36.85539521484375ZM32.07318581542969,14.47423584484375C31.42678581542969,14.44030611484375,30.875385815429688,14.93674521484375,30.841485815429685,15.58306521484375C30.807485815429686,16.22938521484375,31.303985815429687,16.78083521484375,31.950285815429687,16.81476521484375C31.950285815429687,16.81476521484375,32.07318581542969,14.47423584484375,32.07318581542969,14.47423584484375C32.07318581542969,14.47423584484375,32.07318581542969,14.47423584484375,32.07318581542969,14.47423584484375ZM16.882452215429687,34.743295214843755C17.628262815429686,36.869695214843745,18.83708581542969,38.80389521484375,20.421575815429687,40.406095214843745C20.421575815429687,40.406095214843745,22.088045815429687,38.75809521484375,22.088045815429687,38.75809521484375C20.74763581542969,37.40259521484375,19.72502581542969,35.766395214843755,19.09410581542969,33.967595214843755C19.09410581542969,33.967595214843755,16.882452215429687,34.743295214843755,16.882452215429687,34.743295214843755C16.882452215429687,34.743295214843755,16.882452215429687,34.743295214843755,16.882452215429687,34.743295214843755ZM20.421575815429687,40.406095214843745C22.006065815429686,42.00829521484375,23.926655815429687,43.23859521484375,26.044605815429687,44.00789521484375C26.044605815429687,44.00789521484375,26.844885815429688,41.805095214843746,26.844885815429688,41.805095214843746C25.05320581542969,41.15419521484375,23.428455815429686,40.11339521484375,22.088045815429687,38.75809521484375C22.088045815429687,38.75809521484375,20.421575815429687,40.406095214843745,20.421575815429687,40.406095214843745C20.421575815429687,40.406095214843745,20.421575815429687,40.406095214843745,20.421575815429687,40.406095214843745ZM26.044605815429687,44.00789521484375C28.162585815429686,44.77749521484375,30.424985815429686,45.06679521484375,32.66838581542969,44.85509521484375C32.66838581542969,44.85509521484375,32.448285815429685,42.52179521484375,32.448285815429685,42.52179521484375C30.55048581542969,42.70079521484375,28.636585815429687,42.45609521484375,26.844885815429688,41.805095214843746C26.844885815429688,41.805095214843746,26.044605815429687,44.00789521484375,26.044605815429687,44.00789521484375C26.044605815429687,44.00789521484375,26.044605815429687,44.00789521484375,26.044605815429687,44.00789521484375ZM32.66838581542969,44.85509521484375C34.911885815429684,44.64359521484375,37.08018581542969,43.93639521484375,39.01698581542969,42.78449521484375C39.01698581542969,42.78449521484375,37.81888581542969,40.77009521484375,37.81888581542969,40.77009521484375C36.18058581542969,41.74449521484375,34.34608581542969,42.34279521484375,32.448285815429685,42.52179521484375C32.448285815429685,42.52179521484375,32.66838581542969,44.85509521484375,32.66838581542969,44.85509521484375C32.66838581542969,44.85509521484375,32.66838581542969,44.85509521484375,32.66838581542969,44.85509521484375ZM38.09658581542969,42.90429521484375C38.09658581542969,42.90429521484375,42.959885815429686,44.29109521484375,42.959885815429686,44.29109521484375C42.959885815429686,44.29109521484375,43.60268581542969,42.03699521484375,43.60268581542969,42.03699521484375C43.60268581542969,42.03699521484375,38.739385815429685,40.65029521484375,38.739385815429685,40.65029521484375C38.739385815429685,40.65029521484375,38.09658581542969,42.90429521484375,38.09658581542969,42.90429521484375C38.09658581542969,42.90429521484375,38.09658581542969,42.90429521484375,38.09658581542969,42.90429521484375ZM42.964085815429684,44.29219521484375C43.36488581542969,44.40479521484375,43.78848581542969,44.408695214843746,44.19108581542969,44.303395214843746C44.19108581542969,44.303395214843746,43.59848581542968,42.03589521484375,43.59848581542968,42.03589521484375C43.59848581542968,42.03589521484375,43.59848581542968,42.03589521484375,43.59848581542968,42.03589521484375C43.59848581542968,42.03589521484375,42.964085815429684,44.29219521484375,42.964085815429684,44.29219521484375C42.964085815429684,44.29219521484375,42.964085815429684,44.29219521484375,42.964085815429684,44.29219521484375ZM44.19108581542969,44.303395214843746C44.59388581542969,44.19829521484375,44.961385815429686,43.98749521484375,45.25578581542969,43.69329521484375C45.25578581542969,43.69329521484375,43.59848581542968,42.03589521484375,43.59848581542968,42.03589521484375C43.59848581542968,42.03589521484375,43.59848581542968,42.03589521484375,43.59848581542968,42.03589521484375C43.59848581542968,42.03589521484375,44.19108581542969,44.303395214843746,44.19108581542969,44.303395214843746C44.19108581542969,44.303395214843746,44.19108581542969,44.303395214843746,44.19108581542969,44.303395214843746ZM45.25578581542969,43.69329521484375C45.549985815429686,43.39889521484375,45.760785815429685,43.031395214843755,45.86598581542969,42.62859521484375C45.86598581542969,42.62859521484375,43.59848581542968,42.03589521484375,43.59848581542968,42.03589521484375C43.59848581542968,42.03589521484375,43.59848581542968,42.03589521484375,43.59848581542968,42.03589521484375C43.59848581542968,42.03589521484375,45.25578581542969,43.69329521484375,45.25578581542969,43.69329521484375C45.25578581542969,43.69329521484375,45.25578581542969,43.69329521484375,45.25578581542969,43.69329521484375ZM45.86598581542969,42.62859521484375C45.97128581542969,42.225895214843746,45.96738581542969,41.80229521484375,45.85468581542969,41.40149521484375C45.85468581542969,41.40149521484375,43.59848581542968,42.03589521484375,43.59848581542968,42.03589521484375C43.59848581542968,42.03589521484375,43.59848581542968,42.03589521484375,43.59848581542968,42.03589521484375C43.59848581542968,42.03589521484375,45.86598581542969,42.62859521484375,45.86598581542969,42.62859521484375C45.86598581542969,42.62859521484375,45.86598581542969,42.62859521484375,45.86598581542969,42.62859521484375ZM45.85358581542969,41.39729521484375C45.85358581542969,41.39729521484375,44.46688581542969,36.53399521484375,44.46688581542969,36.53399521484375C44.46688581542969,36.53399521484375,42.21278581542968,37.17679521484375,42.21278581542968,37.17679521484375C42.21278581542968,37.17679521484375,43.59948581542969,42.040095214843745,43.59948581542969,42.040095214843745C43.59948581542969,42.040095214843745,45.85358581542969,41.39729521484375,45.85358581542969,41.39729521484375C45.85358581542969,41.39729521484375,45.85358581542969,41.39729521484375,45.85358581542969,41.39729521484375ZM44.34658581542969,37.45529521484375C45.687985815429684,35.20369521484375,46.424985815429686,32.64389521484375,46.48628581542969,30.02379521484375C46.48628581542969,30.02379521484375,44.143085815429686,29.96899521484375,44.143085815429686,29.96899521484375C44.091285815429686,32.18539521484375,43.46778581542969,34.350895214843746,42.33308581542968,36.25559521484375C42.33308581542968,36.25559521484375,44.34658581542969,37.45529521484375,44.34658581542969,37.45529521484375C44.34658581542969,37.45529521484375,44.34658581542969,37.45529521484375,44.34658581542969,37.45529521484375ZM46.48628581542969,30.02379521484375C46.54748581542969,27.40379521484375,45.930985815429686,24.81229521484375,44.69628581542969,22.50053521484375C44.69628581542969,22.50053521484375,42.62888581542968,23.60465521484375,42.62888581542968,23.60465521484375C43.673285815429686,25.560295214843748,44.194885815429686,27.75259521484375,44.143085815429686,29.96899521484375C44.143085815429686,29.96899521484375,46.48628581542969,30.02379521484375,46.48628581542969,30.02379521484375C46.48628581542969,30.02379521484375,46.48628581542969,30.02379521484375,46.48628581542969,30.02379521484375ZM44.69628581542969,22.50053521484375C43.461585815429686,20.18878521484375,41.650785815429685,18.23515521484375,39.43918581542969,16.82894521484375C39.43918581542969,16.82894521484375,38.18168581542969,18.80674521484375,38.18168581542969,18.80674521484375C40.05248581542969,19.99634521484375,41.584385815429684,21.64903521484375,42.62888581542968,23.60465521484375C42.62888581542968,23.60465521484375,44.69628581542969,22.50053521484375,44.69628581542969,22.50053521484375C44.69628581542969,22.50053521484375,44.69628581542969,22.50053521484375,44.69628581542969,22.50053521484375ZM39.43918581542969,16.82894521484375C37.22768581542969,15.42273221484375,34.69028581542969,14.61163121484375,32.07318581542969,14.47423584484375C32.07318581542969,14.47423584484375,31.950285815429687,16.81476521484375,31.950285815429687,16.81476521484375C34.16438581542968,16.93099521484375,36.31078581542969,17.61715521484375,38.18168581542969,18.80674521484375C38.18168581542969,18.80674521484375,39.43918581542969,16.82894521484375,39.43918581542969,16.82894521484375C39.43918581542969,16.82894521484375,39.43918581542969,16.82894521484375,39.43918581542969,16.82894521484375Z"
        fill="#FFFFFF" fill-opacity="1" />
    </g>
  </g>
</svg>