<svg xmlns="http://www.w3.org/2000/svg" xmlns:xlink="http://www.w3.org/1999/xlink" fill="none" version="1.1" width="20"
  height="20" viewBox="0 0 20 20">
  <g>
    <g>
      <path
        d="M10.12461,5.6435C9.34876,5.6435,8.147780000000001,4.76137,6.88304,4.79326C5.21444,4.81451,3.684,5.76041,2.823124,7.25897C1.0907499999999999,10.2667,2.376745,14.7092,4.06661,17.1537C4.8956,18.344,5.87338,19.6832,7.17,19.6407C8.41349,19.5875,8.88112,18.8329,10.39031,18.8329C11.88886,18.8329,12.314,19.6407,13.6319,19.6088C14.971,19.5875,15.8212,18.3972,16.6396,17.1962C17.5855,15.8146,17.9787,14.4754,18,14.401C17.9681,14.3904,15.3961,13.402,15.3642,10.4261C15.343,7.93916,17.394199999999998,6.74882,17.4899,6.69568C16.3208,4.98456,14.5246,4.79326,13.8976,4.75074C12.2608,4.62321,10.88983,5.6435,10.12461,5.6435C10.12461,5.6435,10.12461,5.6435,10.12461,5.6435ZM12.8879,3.13528C13.5787,2.30629,14.0357,1.14783,13.9082,0C12.9198,0.0425123,11.72944,0.65894,11.01736,1.48793C10.37968,2.22127,9.827020000000001,3.40098,9.97581,4.52756C11.0705,4.61258,12.1971,3.96427,12.8879,3.13528Z"
        fill="#202020" fill-opacity="1" />
    </g>
  </g>
</svg>