<?xml version="1.0" encoding="UTF-8"?>
<!DOCTYPE svg PUBLIC "-//W3C//DTD SVG 1.1//EN" "http://www.w3.org/Graphics/SVG/1.1/DTD/svg11.dtd">
<!-- Creator: CorelDRAW 2020 (64-Bit) -->
<svg xmlns="http://www.w3.org/2000/svg" transform="scale(2)" xml:space="preserve" width="254mm" height="254mm" version="1.1" style="shape-rendering:geometricPrecision; text-rendering:geometricPrecision; image-rendering:optimizeQuality; fill-rule:evenodd; clip-rule:evenodd"
viewBox="0 0 25400 25400"
 xmlns:xlink="http://www.w3.org/1999/xlink"
 xmlns:xodm="http://www.corel.com/coreldraw/odm/2003">
 <defs>
  <style type="text/css">
   <![CDATA[
    .fil0 {fill:none}
    .fil1 {fill:#3AB8FD}
   ]]>
  </style>
 </defs>
 <g id="图层_x0020_1">
  <metadata id="CorelCorpID_0Corel-Layer"/>
  <rect class="fil0" width="25400" height="25400"/>
  <path class="fil1" d="M11278.01 7505.97l2843.98 0c2074.63,0 3772.04,1697.41 3772.04,3772.04l0 2843.98c0,2074.63 -1697.41,3772.04 -3772.04,3772.04l-2843.98 0c-2074.63,0 -3772.04,-1697.41 -3772.04,-3772.04l0 -2843.98c0,-2074.63 1697.41,-3772.04 3772.04,-3772.04zm416.84 1691.15l2010.29 0c1373.76,0 2497.74,1123.97 2497.74,2497.73l0 2010.29c0,1373.76 -1123.98,2497.74 -2497.74,2497.74l-2010.29 0c-1373.77,0 -2497.73,-1123.98 -2497.73,-2497.74l0 -2010.29c0,-1373.76 1123.96,-2497.73 2497.73,-2497.73z"/>
  <rect class="fil1" x="10571.51" y="10571.52" width="4256.96" height="4256.96" rx="1709" ry="1709"/>
  <polygon class="fil1" points="14456.66,13392.48 16223.37,15621.81 14895.23,16668.73 13128.52,14439.39 "/>
 </g>
</svg>
