<svg xmlns="http://www.w3.org/2000/svg" xmlns:xlink="http://www.w3.org/1999/xlink" fill="none" version="1.1" width="50"
  height="50" viewBox="0 0 50 50">
  <g>
    <g></g>
    <g>
      <path
        d="M17.18749167480469,26.347587109375C17.18749167480469,26.347587109375,17.961591674804687,25.467687109375,17.961591674804687,25.467687109375C17.807191674804688,25.331987109375,17.619791674804688,25.239087109375,17.41819167480469,25.198687109375C17.41819167480469,25.198687109375,17.18749167480469,26.347587109375,17.18749167480469,26.347587109375C17.18749167480469,26.347587109375,17.18749167480469,26.347587109375,17.18749167480469,26.347587109375ZM34.74609167480469,41.796787109375C34.74609167480469,41.796787109375,35.52289167480468,40.919287109375,35.52289167480468,40.919287109375C35.52289167480468,40.919287109375,35.52029167480469,40.916987109375,35.52029167480469,40.916987109375C35.52029167480469,40.916987109375,34.74609167480469,41.796787109375,34.74609167480469,41.796787109375C34.74609167480469,41.796787109375,34.74609167480469,41.796787109375,34.74609167480469,41.796787109375ZM37.30469167480469,40.976487109375C37.30469167480469,40.976487109375,38.446791674804686,41.238687109375,38.446791674804686,41.238687109375C38.446791674804686,41.238687109375,38.446991674804686,41.237987109375,38.446991674804686,41.237987109375C38.446991674804686,41.237987109375,37.30469167480469,40.976487109375,37.30469167480469,40.976487109375C37.30469167480469,40.976487109375,37.30469167480469,40.976487109375,37.30469167480469,40.976487109375ZM44.648391674804685,8.906177109375001C44.648391674804685,8.906177109375001,45.79069167480469,9.167767109375,45.79069167480469,9.167767109375C45.79069167480469,9.167767109375,45.79229167480469,9.161207109374999,45.79229167480469,9.161207109374999C45.79229167480469,9.161207109374999,44.648391674804685,8.906177109375001,44.648391674804685,8.906177109375001C44.648391674804685,8.906177109375001,44.648391674804685,8.906177109375001,44.648391674804685,8.906177109375001ZM42.55859167480469,7.109307109375C42.55859167480469,7.109307109375,42.13499167480469,6.016661109375,42.13499167480469,6.016661109375C42.13499167480469,6.016661109375,42.13029167480469,6.018542109375,42.13029167480469,6.018542109375C42.13029167480469,6.018542109375,42.55859167480469,7.109307109375,42.55859167480469,7.109307109375C42.55859167480469,7.109307109375,42.55859167480469,7.109307109375,42.55859167480469,7.109307109375ZM6.503911674804687,21.269487109375C6.503911674804687,21.269487109375,6.931501674804688,22.360587109375,6.931501674804688,22.360587109375C6.931501674804688,22.360587109375,6.9323016748046875,22.360287109375,6.9323016748046875,22.360287109375C6.9323016748046875,22.360287109375,6.503911674804687,21.269487109375,6.503911674804687,21.269487109375C6.503911674804687,21.269487109375,6.503911674804687,21.269487109375,6.503911674804687,21.269487109375ZM6.777351674804688,24.257687109375C6.777351674804688,24.257687109375,6.541861674804688,25.405687109375,6.541861674804688,25.405687109375C6.541861674804688,25.405687109375,6.546691674804688,25.406587109375,6.546691674804688,25.406587109375C6.546691674804688,25.406587109375,6.777351674804688,24.257687109375,6.777351674804688,24.257687109375C6.777351674804688,24.257687109375,6.777351674804688,24.257687109375,6.777351674804688,24.257687109375ZM16.413391674804686,27.227387109375C16.413391674804686,27.227387109375,33.971991674804684,42.676587109375,33.971991674804684,42.676587109375C33.971991674804684,42.676587109375,35.52029167480469,40.916987109375,35.52029167480469,40.916987109375C35.52029167480469,40.916987109375,17.961591674804687,25.467687109375,17.961591674804687,25.467687109375C17.961591674804687,25.467687109375,16.413391674804686,27.227387109375,16.413391674804686,27.227387109375C16.413391674804686,27.227387109375,16.413391674804686,27.227387109375,16.413391674804686,27.227387109375ZM33.96929167480469,42.674287109375C34.32449167480469,42.988687109375,34.75529167480469,43.205187109375,35.21929167480469,43.302687109375C35.21929167480469,43.302687109375,35.701491674804686,41.009087109375,35.701491674804686,41.009087109375C35.635091674804684,40.995187109375,35.57359167480469,40.964287109375,35.52289167480468,40.919487109375C35.52289167480468,40.919487109375,33.96929167480469,42.674287109375,33.96929167480469,42.674287109375C33.96929167480469,42.674287109375,33.96929167480469,42.674287109375,33.96929167480469,42.674287109375ZM35.21929167480469,43.302687109375C35.68339167480469,43.400387109375,36.16499167480469,43.375587109375,36.616691674804684,43.230687109375C36.616691674804684,43.230687109375,35.90109167480469,40.998787109375,35.90109167480469,40.998787109375C35.83649167480469,41.019587109375,35.767791674804684,41.022987109375,35.701491674804686,41.009087109375C35.701491674804686,41.009087109375,35.21929167480469,43.302687109375,35.21929167480469,43.302687109375C35.21929167480469,43.302687109375,35.21929167480469,43.302687109375,35.21929167480469,43.302687109375ZM36.616691674804684,43.230687109375C37.06819167480469,43.085887109375,37.47449167480469,42.826187109375,37.79529167480469,42.476987109375C37.79529167480469,42.476987109375,36.06949167480469,40.891187109375,36.06949167480469,40.891187109375C36.02359167480469,40.940987109375,35.965591674804685,40.978187109375,35.90109167480469,40.998787109375C35.90109167480469,40.998787109375,36.616691674804684,43.230687109375,36.616691674804684,43.230687109375C36.616691674804684,43.230687109375,36.616691674804684,43.230687109375,36.616691674804684,43.230687109375ZM37.79529167480469,42.476987109375C38.11619167480469,42.127687109375,38.34069167480469,41.700987109375,38.446791674804686,41.238687109375C38.446791674804686,41.238687109375,36.162491674804684,40.714287109375,36.162491674804684,40.714287109375C36.14729167480469,40.780387109375,36.11529167480469,40.841287109375,36.06949167480469,40.891187109375C36.06949167480469,40.891187109375,37.79529167480469,42.476987109375,37.79529167480469,42.476987109375C37.79529167480469,42.476987109375,37.79529167480469,42.476987109375,37.79529167480469,42.476987109375ZM38.446991674804686,41.237987109375C38.446991674804686,41.237987109375,45.79069167480469,9.167757109375,45.79069167480469,9.167757109375C45.79069167480469,9.167757109375,43.50619167480469,8.644617109375,43.50619167480469,8.644617109375C43.50619167480469,8.644617109375,36.162491674804684,40.714887109375,36.162491674804684,40.714887109375C36.162491674804684,40.714887109375,38.446991674804686,41.237987109375,38.446991674804686,41.237987109375C38.446991674804686,41.237987109375,38.446991674804686,41.237987109375,38.446991674804686,41.237987109375ZM45.79229167480469,9.161207109374999C45.89999167480469,8.677867109375,45.87449167480469,8.174347109375,45.718391674804685,7.704377109375C45.718391674804685,7.704377109375,43.49419167480469,8.443047109375,43.49419167480469,8.443047109375C43.51639167480469,8.510187109375,43.52009167480469,8.582117109375,43.50469167480469,8.651167109375C43.50469167480469,8.651167109375,45.79229167480469,9.161207109374999,45.79229167480469,9.161207109374999C45.79229167480469,9.161207109374999,45.79229167480469,9.161207109374999,45.79229167480469,9.161207109374999ZM45.718391674804685,7.704377109375C45.56229167480469,7.234417109375,45.281491674804684,6.815658109375,44.906091674804685,6.492807109375C44.906091674804685,6.492807109375,43.378091674804686,8.269967109375,43.378091674804686,8.269967109375C43.43169167480469,8.316087109375001,43.471791674804685,8.375917109375,43.49419167480469,8.443047109375C43.49419167480469,8.443047109375,45.718391674804685,7.704377109375,45.718391674804685,7.704377109375C45.718391674804685,7.704377109375,45.718391674804685,7.704377109375,45.718391674804685,7.704377109375ZM44.906091674804685,6.492807109375C44.53059167480469,6.169956109375,44.07449167480469,5.955137109375,43.58639167480469,5.871279409375C43.58639167480469,5.871279409375,43.189491674804685,8.181177109375,43.189491674804685,8.181177109375C43.259291674804686,8.193157109375,43.32449167480469,8.223847109375,43.378091674804686,8.269967109375C43.378091674804686,8.269967109375,44.906091674804685,6.492807109375,44.906091674804685,6.492807109375C44.906091674804685,6.492807109375,44.906091674804685,6.492807109375,44.906091674804685,6.492807109375ZM43.58639167480469,5.871279409375C43.09839167480469,5.787421609375,42.59669167480469,5.837673199375,42.13499167480469,6.016670109375C42.13499167480469,6.016670109375,42.98219167480469,8.201947109375,42.98219167480469,8.201947109375C43.04809167480469,8.176377109375,43.11979167480469,8.169197109375,43.189491674804685,8.181177109375C43.189491674804685,8.181177109375,43.58639167480469,5.871279409375,43.58639167480469,5.871279409375C43.58639167480469,5.871279409375,43.58639167480469,5.871279409375,43.58639167480469,5.871279409375ZM42.13029167480469,6.018542109375C42.13029167480469,6.018542109375,6.075521674804687,20.178687109374998,6.075521674804687,20.178687109374998C6.075521674804687,20.178687109374998,6.9323016748046875,22.360287109375,6.9323016748046875,22.360287109375C6.9323016748046875,22.360287109375,42.986991674804685,8.200077109375,42.986991674804685,8.200077109375C42.986991674804685,8.200077109375,42.13029167480469,6.018542109375,42.13029167480469,6.018542109375C42.13029167480469,6.018542109375,42.13029167480469,6.018542109375,42.13029167480469,6.018542109375ZM6.076321674804688,20.178387109375002C3.5133356748046873,21.182787109375,3.9083356748046874,24.865587109375,6.541871674804687,25.405687109375C6.541871674804687,25.405687109375,7.012831674804687,23.109787109375,7.012831674804687,23.109787109375C6.892991674804687,23.085187109375,6.828091674804687,23.035087109375,6.786871674804687,22.985987109375C6.739281674804687,22.929087109375,6.7031116748046875,22.847387109375,6.694301674804688,22.751487109375C6.6854916748046875,22.655687109375,6.706361674804688,22.571987109375,6.740401674804687,22.512287109375C6.7692716748046875,22.461787109375,6.820161674804687,22.404187109375,6.931501674804688,22.360587109375C6.931501674804688,22.360587109375,6.076321674804688,20.178387109375002,6.076321674804688,20.178387109375002C6.076321674804688,20.178387109375002,6.076321674804688,20.178387109375002,6.076321674804688,20.178387109375002ZM6.546691674804688,25.406587109375C6.546691674804688,25.406587109375,16.956891674804687,27.496487109375,16.956891674804687,27.496487109375C16.956891674804687,27.496487109375,17.41819167480469,25.198687109375,17.41819167480469,25.198687109375C17.41819167480469,25.198687109375,7.008001674804687,23.108787109375,7.008001674804687,23.108787109375C7.008001674804687,23.108787109375,6.546691674804688,25.406587109375,6.546691674804688,25.406587109375C6.546691674804688,25.406587109375,6.546691674804688,25.406587109375,6.546691674804688,25.406587109375Z"
        fill="#FFFFFF" fill-opacity="1" />
    </g>
    <g>
      <path
        d="M16.501347447265626,25.39770146484375C15.976678947265626,25.77660146484375,15.858549447265625,26.50910146484375,16.237497447265625,27.03380146484375C16.616446447265623,27.55850146484375,17.348973447265625,27.67660146484375,17.873643447265625,27.29770146484375C17.873643447265625,27.29770146484375,16.501347447265626,25.39770146484375,16.501347447265626,25.39770146484375C16.501347447265626,25.39770146484375,16.501347447265626,25.39770146484375,16.501347447265626,25.39770146484375ZM44.455633447265626,8.09846146484375C44.98033344726562,7.71951146484375,45.09843344726562,6.98698146484375,44.719533447265626,6.46231546484375C44.340633447265624,5.93764696484375,43.60813344726563,5.81951746484375,43.08343344726563,6.19846546484375C43.08343344726563,6.19846546484375,44.455633447265626,8.09846146484375,44.455633447265626,8.09846146484375C44.455633447265626,8.09846146484375,44.455633447265626,8.09846146484375,44.455633447265626,8.09846146484375ZM17.873643447265625,27.29770146484375C17.873643447265625,27.29770146484375,44.455633447265626,8.09846146484375,44.455633447265626,8.09846146484375C44.455633447265626,8.09846146484375,43.08343344726563,6.19846546484375,43.08343344726563,6.19846546484375C43.08343344726563,6.19846546484375,16.501347447265626,25.39770146484375,16.501347447265626,25.39770146484375C16.501347447265626,25.39770146484375,17.873643447265625,27.29770146484375,17.873643447265625,27.29770146484375C17.873643447265625,27.29770146484375,17.873643447265625,27.29770146484375,17.873643447265625,27.29770146484375Z"
        fill="#FFFFFF" fill-opacity="1" />
    </g>
    <g>
      <path
        d="M26.785625,34.891141250000004C27.243325,34.43350125,27.243325,33.69150125,26.785625,33.233861250000004C26.328025,32.77622125,25.586035000000003,32.77622125,25.128394999999998,33.233861250000004C25.128394999999998,33.233861250000004,26.785625,34.891141250000004,26.785625,34.891141250000004C26.785625,34.891141250000004,26.785625,34.891141250000004,26.785625,34.891141250000004ZM19.863285,40.15628125C19.863285,40.15628125,19.034615,39.32758125,19.034615,39.32758125C19.034615,39.32758125,19.028315,39.33398125,19.028315,39.33398125C19.028315,39.33398125,19.863285,40.15628125,19.863285,40.15628125C19.863285,40.15628125,19.863285,40.15628125,19.863285,40.15628125ZM17.187505,39.06248125C17.187505,39.06248125,16.015625,39.06248125,16.015625,39.06248125C16.015625,39.06248125,16.015628125,39.06448125,16.015628125,39.06448125C16.015628125,39.06448125,17.187505,39.06248125,17.187505,39.06248125C17.187505,39.06248125,17.187505,39.06248125,17.187505,39.06248125ZM18.359375,26.34766125C18.359375,25.70044725,17.834715,25.17578125,17.187505,25.17578125C16.540292,25.17578125,16.0156265625,25.70044725,16.0156265625,26.34766125C16.0156265625,26.34766125,18.359375,26.34766125,18.359375,26.34766125C18.359375,26.34766125,18.359375,26.34766125,18.359375,26.34766125ZM25.128394999999998,33.233861250000004C25.128394999999998,33.233861250000004,19.034645,39.32758125,19.034645,39.32758125C19.034645,39.32758125,20.691925,40.98488125,20.691925,40.98488125C20.691925,40.98488125,26.785625,34.891141250000004,26.785625,34.891141250000004C26.785625,34.891141250000004,25.128394999999998,33.233861250000004,25.128394999999998,33.233861250000004C25.128394999999998,33.233861250000004,25.128394999999998,33.233861250000004,25.128394999999998,33.233861250000004ZM19.028315,39.33398125C18.973975,39.38918125,18.904435,39.42698125,18.828565,39.44258125C18.828565,39.44258125,19.299975,41.73838125,19.299975,41.73838125C19.831075,41.62928125,20.317795,41.364881249999996,20.698255,40.97848125C20.698255,40.97848125,19.028315,39.33398125,19.028315,39.33398125C19.028315,39.33398125,19.028315,39.33398125,19.028315,39.33398125ZM18.828565,39.44258125C18.752685,39.45808125,18.673895,39.45078125,18.602195000000002,39.42148125C18.602195000000002,39.42148125,17.715395,41.59098125,17.715395,41.59098125C18.217285,41.79608125,18.768845,41.84748125,19.299975,41.73838125C19.299975,41.73838125,18.828565,39.44258125,18.828565,39.44258125C18.828565,39.44258125,18.828565,39.44258125,18.828565,39.44258125ZM18.602195000000002,39.42148125C18.530504999999998,39.39218125,18.469135,39.342181249999996,18.425895,39.277981249999996C18.425895,39.277981249999996,16.481273,40.586181249999996,16.481273,40.586181249999996C16.78393,41.03608125,17.213495,41.38578125,17.715395,41.59098125C17.715395,41.59098125,18.602195000000002,39.42148125,18.602195000000002,39.42148125C18.602195000000002,39.42148125,18.602195000000002,39.42148125,18.602195000000002,39.42148125ZM18.425895,39.277981249999996C18.382655,39.21368125,18.359505,39.137981249999996,18.359375,39.06058125C18.359375,39.06058125,16.015628125,39.06448125,16.015628125,39.06448125C16.016534375,39.60668125,16.178614,40.13638125,16.481273,40.586181249999996C16.481273,40.586181249999996,18.425895,39.277981249999996,18.425895,39.277981249999996C18.425895,39.277981249999996,18.425895,39.277981249999996,18.425895,39.277981249999996ZM18.359375,39.06248125C18.359375,39.06248125,18.359375,26.34766125,18.359375,26.34766125C18.359375,26.34766125,16.0156265625,26.34766125,16.0156265625,26.34766125C16.0156265625,26.34766125,16.0156265625,39.06248125,16.0156265625,39.06248125C16.0156265625,39.06248125,18.359375,39.06248125,18.359375,39.06248125C18.359375,39.06248125,18.359375,39.06248125,18.359375,39.06248125Z"
        fill="#FFFFFF" fill-opacity="1" />
    </g>
  </g>
</svg>