<svg xmlns="http://www.w3.org/2000/svg" xmlns:xlink="http://www.w3.org/1999/xlink" fill="none" version="1.1" width="50"
  height="50" viewBox="0 0 50 50">
  <g>
    <g></g>
    <g>
      <path
        d="M32.812525,20.703175C32.812525,20.703175,33.495925,19.751175,33.495925,19.751175C33.138925,19.494875,32.668625,19.459875,32.277525,19.660474999999998C31.886525,19.861075,31.640625,20.263675,31.640625,20.703175C31.640625,20.703175,32.812525,20.703175,32.812525,20.703175C32.812525,20.703175,32.812525,20.703175,32.812525,20.703175ZM43.750025,24.218775C43.750025,24.218775,43.750825,25.390675,43.750825,25.390675C44.397625,25.390175,44.921925,24.865675,44.921925,24.218775C44.921925,24.218775,43.750025,24.218775,43.750025,24.218775C43.750025,24.218775,43.750025,24.218775,43.750025,24.218775ZM43.750025,16.406275C43.750025,16.406275,44.921925,16.406275,44.921925,16.406275C44.921925,15.759075,44.397225,15.234375,43.750025,15.234375C43.750025,15.234375,43.750025,16.406275,43.750025,16.406275C43.750025,16.406275,43.750025,16.406275,43.750025,16.406275ZM32.812525,5.468755C32.812525,5.468755,33.984425,5.468755,33.984425,5.468755C33.984425,4.821541,33.459725,4.296875,32.812525,4.296875C32.812525,4.296875,32.812525,5.468755,32.812525,5.468755C32.812525,5.468755,32.812525,5.468755,32.812525,5.468755ZM25.000025,5.468755C25.000025,5.468755,25.000025,4.296875,25.000025,4.296875C24.352825,4.296875,23.828125,4.821541,23.828125,5.468755C23.828125,5.468755,25.000025,5.468755,25.000025,5.468755C25.000025,5.468755,25.000025,5.468755,25.000025,5.468755ZM25.000025,30.468775C25.000025,30.468775,26.171925,30.468775,26.171925,30.468775C26.171925,30.468775,26.171925,30.468775,26.171925,30.468775C26.171925,30.468775,25.000025,30.468775,25.000025,30.468775C25.000025,30.468775,25.000025,30.468775,25.000025,30.468775ZM17.187525,25.527375C17.187525,25.527375,17.689725,26.586075,17.689725,26.586075C18.098725,26.392175,18.359425,25.979975,18.359425,25.527375C18.359425,25.527375,17.187525,25.527375,17.187525,25.527375C17.187525,25.527375,17.187525,25.527375,17.187525,25.527375ZM17.187525,17.402375C17.187525,17.402375,18.359425,17.402375,18.359425,17.402375C18.359425,17.055374999999998,18.205624999999998,16.726174999999998,17.939525,16.503574999999998C17.673325,16.280875,17.322225,16.187675,16.980725,16.248874999999998C16.980725,16.248874999999998,17.187525,17.402375,17.187525,17.402375C17.187525,17.402375,17.187525,17.402375,17.187525,17.402375ZM32.812525,30.468775C32.812525,30.468775,31.640625,30.468775,31.640625,30.468775C31.640625,30.468775,31.640625,30.469375,31.640625,30.469375C31.640625,30.469375,32.812525,30.468775,32.812525,30.468775C32.812525,30.468775,32.812525,30.468775,32.812525,30.468775ZM32.129025,21.654975C35.515924999999996,24.086875,39.581225,25.393575,43.750825,25.390675C43.750825,25.390675,43.749225,23.046875,43.749225,23.046875C40.070625,23.049575,36.484025,21.896675,33.495925,19.751175C33.495925,19.751175,32.129025,21.654975,32.129025,21.654975C32.129025,21.654975,32.129025,21.654975,32.129025,21.654975ZM44.921925,24.218775C44.921925,24.218775,44.921925,16.406275,44.921925,16.406275C44.921925,16.406275,42.578125,16.406275,42.578125,16.406275C42.578125,16.406275,42.578125,24.218775,42.578125,24.218775C42.578125,24.218775,44.921925,24.218775,44.921925,24.218775C44.921925,24.218775,44.921925,24.218775,44.921925,24.218775ZM43.750025,15.234375C41.160025,15.234375,38.676125,14.205505,36.844725,12.374095C36.844725,12.374095,35.187325,14.031375,35.187325,14.031375C37.458325,16.302275,40.538425,17.578175,43.750025,17.578175C43.750025,17.578175,43.750025,15.234375,43.750025,15.234375C43.750025,15.234375,43.750025,15.234375,43.750025,15.234375ZM36.844725,12.374095C35.013324999999995,10.542675,33.984425,8.058755,33.984425,5.468755C33.984425,5.468755,31.640625,5.468755,31.640625,5.468755C31.640625,8.680354999999999,32.916425000000004,11.760425,35.187325,14.031375C35.187325,14.031375,36.844725,12.374095,36.844725,12.374095C36.844725,12.374095,36.844725,12.374095,36.844725,12.374095ZM32.812525,4.296875C32.812525,4.296875,25.000025,4.296875,25.000025,4.296875C25.000025,4.296875,25.000025,6.640625,25.000025,6.640625C25.000025,6.640625,32.812525,6.640625,32.812525,6.640625C32.812525,6.640625,32.812525,4.296875,32.812525,4.296875C32.812525,4.296875,32.812525,4.296875,32.812525,4.296875ZM23.828125,5.468755C23.828125,5.468755,23.828125,30.468775,23.828125,30.468775C23.828125,30.468775,26.171925,30.468775,26.171925,30.468775C26.171925,30.468775,26.171925,5.468755,26.171925,5.468755C26.171925,5.468755,23.828125,5.468755,23.828125,5.468755C23.828125,5.468755,23.828125,5.468755,23.828125,5.468755ZM23.828125,30.468775C23.828125,31.237675,23.621725,31.992475,23.230425,32.654575C23.230425,32.654575,25.248325,33.846875,25.248325,33.846875C25.852825,32.823775,26.171925,31.657175,26.171925,30.468775C26.171925,30.468775,23.828125,30.468775,23.828125,30.468775C23.828125,30.468775,23.828125,30.468775,23.828125,30.468775ZM23.230425,32.654575C22.839225,33.316375,22.277625,33.861374999999995,21.604025,34.232375000000005C21.604025,34.232375000000005,22.734525,36.285275,22.734525,36.285275C23.775625,35.712075,24.643625,34.869975,25.248325,33.846875C25.248325,33.846875,23.230425,32.654575,23.230425,32.654575C23.230425,32.654575,23.230425,32.654575,23.230425,32.654575ZM21.604025,34.232375000000005C20.930425,34.603275,20.169625,34.786575,19.401125,34.763275C19.401125,34.763275,19.330125000000002,37.105975,19.330125000000002,37.105975C20.517924999999998,37.142075,21.693625,36.858575,22.734525,36.285275C22.734525,36.285275,21.604025,34.232375000000005,21.604025,34.232375000000005C21.604025,34.232375000000005,21.604025,34.232375000000005,21.604025,34.232375000000005ZM19.401125,34.763275C18.632525,34.739975,17.884225,34.510975,17.234325,34.099875C17.234325,34.099875,15.981525,36.080675,15.981525,36.080675C16.985825,36.715975,18.142225,37.069975,19.330125000000002,37.105975C19.330125000000002,37.105975,19.401125,34.763275,19.401125,34.763275C19.401125,34.763275,19.401125,34.763275,19.401125,34.763275ZM17.234325,34.099875C16.584525,33.688775,16.056825,33.110974999999996,15.706425,32.426375C15.706425,32.426375,13.620175,33.494575,13.620175,33.494575C14.161705,34.552375,14.977175,35.445475,15.981525,36.080675C15.981525,36.080675,17.234325,34.099875,17.234325,34.099875C17.234325,34.099875,17.234325,34.099875,17.234325,34.099875ZM15.706425,32.426375C15.356025,31.742075,15.195725,30.975975,15.242225,30.208475C15.242225,30.208475,12.902785,30.066675,12.902785,30.066675C12.830895,31.252775,13.078645,32.436575000000005,13.620175,33.494575C13.620175,33.494575,15.706425,32.426375,15.706425,32.426375C15.706425,32.426375,15.706425,32.426375,15.706425,32.426375ZM15.242225,30.208475C15.288725,29.440975,15.540425,28.699975,15.970925,28.062775C15.970925,28.062775,14.028875,26.750675,14.028875,26.750675C13.363565,27.735275,12.974675000000001,28.880475,12.902785,30.066675C12.902785,30.066675,15.242225,30.208475,15.242225,30.208475C15.242225,30.208475,15.242225,30.208475,15.242225,30.208475ZM15.970925,28.062775C16.401425,27.425675,16.995025,26.915675,17.689725,26.586075C17.689725,26.586075,16.685225000000003,24.468575,16.685225000000003,24.468575C15.611525,24.977775,14.694205,25.765975,14.028875,26.750675C14.028875,26.750675,15.970925,28.062775,15.970925,28.062775C15.970925,28.062775,15.970925,28.062775,15.970925,28.062775ZM18.359425,25.527375C18.359425,25.527375,18.359425,17.402375,18.359425,17.402375C18.359425,17.402375,16.015625,17.402375,16.015625,17.402375C16.015625,17.402375,16.015625,25.527375,16.015625,25.527375C16.015625,25.527375,18.359425,25.527375,18.359425,25.527375C18.359425,25.527375,18.359425,25.527375,18.359425,25.527375ZM16.980725,16.248874999999998C14.274095,16.734075,11.762075,17.981375,9.739515,19.844275C9.739515,19.844275,11.327375,21.568275,11.327375,21.568275C13.021935,20.007375,15.126625,18.962375,17.394325000000002,18.555875C17.394325000000002,18.555875,16.980725,16.248874999999998,16.980725,16.248874999999998C16.980725,16.248874999999998,16.980725,16.248874999999998,16.980725,16.248874999999998ZM9.739515,19.844275C7.716965,21.707175,6.267805,24.108475,5.562146,26.766075C5.562146,26.766075,7.827405000000001,27.367675,7.827405000000001,27.367675C8.418625,25.140975,9.632795,23.129075,11.327375,21.568275C11.327375,21.568275,9.739515,19.844275,9.739515,19.844275C9.739515,19.844275,9.739515,19.844275,9.739515,19.844275ZM5.562146,26.766075C4.856488,29.423775,4.92362,32.227675000000005,5.755661,34.848475C5.755661,34.848475,7.989545,34.139175,7.989545,34.139175C7.292425,31.943475,7.236185,29.594175,7.827405000000001,27.367675C7.827405000000001,27.367675,5.562146,26.766075,5.562146,26.766075C5.562146,26.766075,5.562146,26.766075,5.562146,26.766075ZM5.755661,34.848475C6.587705,37.469375,8.150125,39.798475,10.259515,41.562475C10.259515,41.562475,11.763045,39.764575,11.763045,39.764575C9.995705000000001,38.286575,8.686655,36.335175,7.989545,34.139175C7.989545,34.139175,5.755661,34.848475,5.755661,34.848475C5.755661,34.848475,5.755661,34.848475,5.755661,34.848475ZM10.259515,41.562475C12.368905,43.326375,14.937735,44.452075,17.664425,44.807175C17.664425,44.807175,17.967225,42.483175,17.967225,42.483175C15.682625,42.185475,13.530375,41.242475,11.763045,39.764575C11.763045,39.764575,10.259515,41.562475,10.259515,41.562475C10.259515,41.562475,10.259515,41.562475,10.259515,41.562475ZM17.664425,44.807175C20.391225,45.162375,23.162625,44.732375,25.653625,43.567475C25.653625,43.567475,24.660825,41.444575,24.660825,41.444575C22.573725,42.420275,20.251725,42.780675,17.967225,42.483175C17.967225,42.483175,17.664425,44.807175,17.664425,44.807175C17.664425,44.807175,17.664425,44.807175,17.664425,44.807175ZM25.653625,43.567475C28.144325,42.402775,30.251225,40.551575,31.726925,38.231275C31.726925,38.231275,29.749225,36.973575,29.749225,36.973575C28.512925,38.917475,26.747625,40.468575,24.660825,41.444575C24.660825,41.444575,25.653625,43.567475,25.653625,43.567475C25.653625,43.567475,25.653625,43.567475,25.653625,43.567475ZM31.726925,38.231275C33.202625,35.911075,33.985625,33.217974999999996,33.984425,30.468175C33.984425,30.468175,31.640625,30.469375,31.640625,30.469375C31.641725,32.773174999999995,30.985625,35.029575,29.749225,36.973575C29.749225,36.973575,31.726925,38.231275,31.726925,38.231275C31.726925,38.231275,31.726925,38.231275,31.726925,38.231275ZM33.984425,30.468775C33.984425,30.468775,33.984425,20.703175,33.984425,20.703175C33.984425,20.703175,31.640625,20.703175,31.640625,20.703175C31.640625,20.703175,31.640625,30.468775,31.640625,30.468775C31.640625,30.468775,33.984425,30.468775,33.984425,30.468775C33.984425,30.468775,33.984425,30.468775,33.984425,30.468775Z"
        fill="#FFFFFF" fill-opacity="1" />
    </g>
  </g>
</svg>