<svg xmlns="http://www.w3.org/2000/svg" xmlns:xlink="http://www.w3.org/1999/xlink" fill="none" version="1.1" width="50"
  height="50" viewBox="0 0 50 50">
  <g>
    <g></g>
    <g>
      <path
        d="M26.171875,21.093725C26.171875,26.055725,22.149475,30.078125,17.187475,30.078125C17.187475,30.078125,17.187475,32.421825,17.187475,32.421825C23.443875,32.421825,28.515575,27.350125,28.515575,21.093725C28.515575,21.093725,26.171875,21.093725,26.171875,21.093725C26.171875,21.093725,26.171875,21.093725,26.171875,21.093725ZM17.187475,30.078125C12.225565,30.078125,8.203125,26.055725,8.203125,21.093725C8.203125,21.093725,5.859375,21.093725,5.859375,21.093725C5.859375,27.350125,10.931155,32.421825,17.187475,32.421825C17.187475,32.421825,17.187475,30.078125,17.187475,30.078125C17.187475,30.078125,17.187475,30.078125,17.187475,30.078125ZM8.203125,21.093725C8.203125,16.131815,12.225565,12.109375,17.187475,12.109375C17.187475,12.109375,17.187475,9.765625,17.187475,9.765625C10.931155,9.765625,5.859375,14.837405,5.859375,21.093725C5.859375,21.093725,8.203125,21.093725,8.203125,21.093725C8.203125,21.093725,8.203125,21.093725,8.203125,21.093725ZM17.187475,12.109375C22.149475,12.109375,26.171875,16.131815,26.171875,21.093725C26.171875,21.093725,28.515575,21.093725,28.515575,21.093725C28.515575,14.837405,23.443875,9.765625,17.187475,9.765625C17.187475,9.765625,17.187475,12.109375,17.187475,12.109375C17.187475,12.109375,17.187475,12.109375,17.187475,12.109375Z"
        fill="#FFFFFF" fill-opacity="1" />
    </g>
    <g>
      <path
        d="M30.044811768310545,10.177583C29.420169768310547,10.346997,29.051133768310546,10.990705,29.220546268310546,11.615345C29.389960768310548,12.239995,30.033669768310546,12.609024999999999,30.658313768310546,12.439615C30.658313768310546,12.439615,30.044811768310545,10.177583,30.044811768310545,10.177583C30.044811768310545,10.177583,30.044811768310545,10.177583,30.044811768310545,10.177583ZM33.10546376831055,10.937505C33.10546376831055,10.937505,33.10546376831055,9.765625,33.10546376831055,9.765625C33.10546376831055,9.765625,33.10190376831055,9.765634375,33.10190376831055,9.765634375C33.10190376831055,9.765634375,33.10546376831055,10.937505,33.10546376831055,10.937505C33.10546376831055,10.937505,33.10546376831055,10.937505,33.10546376831055,10.937505ZM43.26169376831055,21.093725C43.26169376831055,21.093725,44.433593768310544,21.093725,44.433593768310544,21.093725C44.433593768310544,21.093725,43.26169376831055,21.093725,43.26169376831055,21.093725C43.26169376831055,21.093725,43.26169376831055,21.093725,43.26169376831055,21.093725ZM33.10546376831055,30.078125C32.458263768310545,30.078125,31.933593768310548,30.602825,31.933593768310548,31.250025C31.933593768310548,31.897225,32.458263768310545,32.421925,33.10546376831055,32.421925C33.10546376831055,32.421925,33.10546376831055,30.078125,33.10546376831055,30.078125C33.10546376831055,30.078125,33.10546376831055,30.078125,33.10546376831055,30.078125ZM30.658313768310546,12.439615C31.457283768310546,12.222925,32.28120376831055,12.111895,33.109033768310546,12.109375C33.109033768310546,12.109375,33.10190376831055,9.765634375,33.10190376831055,9.765634375C32.069253768310546,9.76877969,31.041463768310546,9.907275,30.044811768310545,10.177583C30.044811768310545,10.177583,30.658313768310546,12.439615,30.658313768310546,12.439615C30.658313768310546,12.439615,30.658313768310546,12.439615,30.658313768310546,12.439615ZM33.10546376831055,12.109375C35.488283768310545,12.109375,37.77348376831055,13.055945,39.45839376831054,14.740845C39.45839376831054,14.740845,41.11569376831055,13.083565,41.11569376831055,13.083565C38.99123376831055,10.959125,36.10987376831055,9.7656296875,33.10546376831055,9.7656296875C33.10546376831055,9.7656296875,33.10546376831055,12.109375,33.10546376831055,12.109375C33.10546376831055,12.109375,33.10546376831055,12.109375,33.10546376831055,12.109375ZM39.45839376831054,14.740845C41.14329376831055,16.425735,42.08979376831054,18.710955,42.08979376831054,21.093725C42.08979376831054,21.093725,44.433593768310544,21.093725,44.433593768310544,21.093725C44.433593768310544,18.089345,43.240093768310544,15.207985,41.11569376831055,13.083565C41.11569376831055,13.083565,39.45839376831054,14.740845,39.45839376831054,14.740845C39.45839376831054,14.740845,39.45839376831054,14.740845,39.45839376831054,14.740845ZM42.08979376831054,21.093725C42.08979376831054,23.476525000000002,41.14329376831055,25.761725,39.45839376831054,27.446725C39.45839376831054,27.446725,41.11569376831055,29.103925,41.11569376831055,29.103925C43.240093768310544,26.979525,44.433593768310544,24.098125,44.433593768310544,21.093725C44.433593768310544,21.093725,42.08979376831054,21.093725,42.08979376831054,21.093725C42.08979376831054,21.093725,42.08979376831054,21.093725,42.08979376831054,21.093725ZM39.45839376831054,27.446725C37.77348376831055,29.131525,35.488283768310545,30.078125,33.10546376831055,30.078125C33.10546376831055,30.078125,33.10546376831055,32.421925,33.10546376831055,32.421925C36.10987376831055,32.421925,38.99123376831055,31.228425,41.11569376831055,29.103925C41.11569376831055,29.103925,39.45839376831054,27.446725,39.45839376831054,27.446725C39.45839376831054,27.446725,39.45839376831054,27.446725,39.45839376831054,27.446725Z"
        fill="#FFFFFF" fill-opacity="1" />
    </g>
    <g>
      <path
        d="M2.1661928178710936,37.88092361328125C1.7940738178710938,38.41047361328125,1.9216837178710937,39.14139361328125,2.4512178178710937,39.51351361328125C2.980755817871094,39.885643613281246,3.7116858178710936,39.75803361328125,4.083805817871093,39.22848361328125C4.083805817871093,39.22848361328125,2.1661928178710936,37.88092361328125,2.1661928178710936,37.88092361328125C2.1661928178710936,37.88092361328125,2.1661928178710936,37.88092361328125,2.1661928178710936,37.88092361328125ZM17.187525817871094,31.24933361328125C17.187525817871094,31.24933361328125,17.187525817871094,32.42120361328125,17.187525817871094,32.42120361328125C17.187525817871094,32.42120361328125,17.187525817871094,31.24933361328125,17.187525817871094,31.24933361328125C17.187525817871094,31.24933361328125,17.187525817871094,31.24933361328125,17.187525817871094,31.24933361328125ZM30.291225817871094,39.22848361328125C30.663325817871094,39.75803361328125,31.394225817871092,39.885643613281246,31.923725817871095,39.51351361328125C32.45332581787109,39.14139361328125,32.58092581787109,38.41047361328125,32.2087258178711,37.88092361328125C32.2087258178711,37.88092361328125,30.291225817871094,39.22848361328125,30.291225817871094,39.22848361328125C30.291225817871094,39.22848361328125,30.291225817871094,39.22848361328125,30.291225817871094,39.22848361328125ZM4.083805817871093,39.22848361328125C5.5615158178710935,37.12567361328125,7.523595817871094,35.40937361328125,9.804315817871093,34.22454361328125C9.804315817871093,34.22454361328125,8.723845817871094,32.14471361328125,8.723845817871094,32.14471361328125C6.109355817871093,33.50292361328125,3.8601558178710937,35.470373613281254,2.1661928178710936,37.88092361328125C2.1661928178710936,37.88092361328125,4.083805817871093,39.22848361328125,4.083805817871093,39.22848361328125C4.083805817871093,39.22848361328125,4.083805817871093,39.22848361328125,4.083805817871093,39.22848361328125ZM9.804315817871093,34.22454361328125C12.085025817871093,33.03973361328125,14.617425817871094,32.42120361328125,17.187525817871094,32.42120361328125C17.187525817871094,32.42120361328125,17.187525817871094,30.07745361328125,17.187525817871094,30.07745361328125C14.241325817871093,30.07745361328125,11.338325817871095,30.78650361328125,8.723845817871094,32.14471361328125C8.723845817871094,32.14471361328125,9.804315817871093,34.22454361328125,9.804315817871093,34.22454361328125C9.804315817871093,34.22454361328125,9.804315817871093,34.22454361328125,9.804315817871093,34.22454361328125ZM17.187525817871094,32.42120361328125C19.757625817871094,32.42120361328125,22.290025817871093,33.03973361328125,24.570625817871093,34.22454361328125C24.570625817871093,34.22454361328125,25.651125817871094,32.14471361328125,25.651125817871094,32.14471361328125C23.036725817871094,30.78650361328125,20.133725817871095,30.07745361328125,17.187525817871094,30.07745361328125C17.187525817871094,30.07745361328125,17.187525817871094,32.42120361328125,17.187525817871094,32.42120361328125C17.187525817871094,32.42120361328125,17.187525817871094,32.42120361328125,17.187525817871094,32.42120361328125ZM24.570625817871093,34.22454361328125C26.851425817871093,35.40937361328125,28.813425817871092,37.12567361328125,30.291225817871094,39.22848361328125C30.291225817871094,39.22848361328125,32.2087258178711,37.88092361328125,32.2087258178711,37.88092361328125C30.514825817871095,35.470373613281254,28.265625817871094,33.50292361328125,25.651125817871094,32.14471361328125C25.651125817871094,32.14471361328125,24.570625817871093,34.22454361328125,24.570625817871093,34.22454361328125C24.570625817871093,34.22454361328125,24.570625817871093,34.22454361328125,24.570625817871093,34.22454361328125Z"
        fill="#FFFFFF" fill-opacity="1" />
    </g>
    <g>
      <path
        d="M33.10474375,30.07812851813C32.45753475,30.078530081,31.933193979,30.603521,31.933593978707,31.250725C31.933995541,31.897935,32.45898575,32.422285,33.10619375,32.421875C33.10619375,32.421875,33.10474375,30.07812851813,33.10474375,30.07812851813C33.10474375,30.07812851813,33.10474375,30.07812851813,33.10474375,30.07812851813ZM46.20879375,39.227955C46.58059375,39.757685,47.31149375,39.885685,47.84119375,39.513855C48.37099375,39.142035,48.49899375,38.411155,48.12709375,37.881425C48.12709375,37.881425,46.20879375,39.227955,46.20879375,39.227955C46.20879375,39.227955,46.20879375,39.227955,46.20879375,39.227955ZM33.10619375,32.421875C35.67631375,32.420285,38.20897375,33.038005,40.48973375,34.222735C40.48973375,34.222735,41.57012375,32.142855,41.57012375,32.142855C38.95517375,30.784532,36.05143375,30.07630352,33.10474375,30.07812851813C33.10474375,30.07812851813,33.10619375,32.421875,33.10619375,32.421875C33.10619375,32.421875,33.10619375,32.421875,33.10619375,32.421875ZM40.48973375,34.222735C42.77049375,35.407465,44.73219375,37.124325,46.20879375,39.227955C46.20879375,39.227955,48.12709375,37.881425,48.12709375,37.881425C46.43419375,35.469575,44.18509375,33.501175,41.57012375,32.142855C41.57012375,32.142855,40.48973375,34.222735,40.48973375,34.222735C40.48973375,34.222735,40.48973375,34.222735,40.48973375,34.222735Z"
        fill="#FFFFFF" fill-opacity="1" />
    </g>
  </g>
</svg>