<svg xmlns="http://www.w3.org/2000/svg" xmlns:xlink="http://www.w3.org/1999/xlink" fill="none" version="1.1" width="50"
  height="50" viewBox="0 0 50 50">
  <g>
    <g></g>
    <g>
      <path
        d="M7.812505,10.546875C7.812505,10.546875,42.187525,10.546875,42.187525,10.546875C42.187525,10.546875,42.187525,8.203125,42.187525,8.203125C42.187525,8.203125,7.812505,8.203125,7.812505,8.203125C7.812505,8.203125,7.812505,10.546875,7.812505,10.546875C7.812505,10.546875,7.812505,10.546875,7.812505,10.546875ZM42.187525,10.546875C42.403325,10.546875,42.578125,10.721765,42.578125,10.937505C42.578125,10.937505,44.921925,10.937505,44.921925,10.937505C44.921925,9.427345,43.697625,8.203125,42.187525,8.203125C42.187525,8.203125,42.187525,10.546875,42.187525,10.546875C42.187525,10.546875,42.187525,10.546875,42.187525,10.546875ZM42.578125,10.937505C42.578125,10.937505,42.578125,39.062525,42.578125,39.062525C42.578125,39.062525,44.921925,39.062525,44.921925,39.062525C44.921925,39.062525,44.921925,10.937505,44.921925,10.937505C44.921925,10.937505,42.578125,10.937505,42.578125,10.937505C42.578125,10.937505,42.578125,10.937505,42.578125,10.937505ZM42.578125,39.062525C42.578125,39.278324999999995,42.403325,39.453125,42.187525,39.453125C42.187525,39.453125,42.187525,41.796925,42.187525,41.796925C43.697625,41.796925,44.921925,40.572625,44.921925,39.062525C44.921925,39.062525,42.578125,39.062525,42.578125,39.062525C42.578125,39.062525,42.578125,39.062525,42.578125,39.062525ZM42.187525,39.453125C42.187525,39.453125,7.812505,39.453125,7.812505,39.453125C7.812505,39.453125,7.812505,41.796925,7.812505,41.796925C7.812505,41.796925,42.187525,41.796925,42.187525,41.796925C42.187525,41.796925,42.187525,39.453125,42.187525,39.453125C42.187525,39.453125,42.187525,39.453125,42.187525,39.453125ZM7.812505,39.453125C7.5967649999999995,39.453125,7.421875,39.278324999999995,7.421875,39.062525C7.421875,39.062525,5.078125,39.062525,5.078125,39.062525C5.078125,40.572625,6.302345,41.796925,7.812505,41.796925C7.812505,41.796925,7.812505,39.453125,7.812505,39.453125C7.812505,39.453125,7.812505,39.453125,7.812505,39.453125ZM7.421875,39.062525C7.421875,39.062525,7.421875,10.937505,7.421875,10.937505C7.421875,10.937505,5.078125,10.937505,5.078125,10.937505C5.078125,10.937505,5.078125,39.062525,5.078125,39.062525C5.078125,39.062525,7.421875,39.062525,7.421875,39.062525C7.421875,39.062525,7.421875,39.062525,7.421875,39.062525ZM7.421875,10.937505C7.421875,10.721765,7.5967649999999995,10.546875,7.812505,10.546875C7.812505,10.546875,7.812505,8.203125,7.812505,8.203125C6.302345,8.203125,5.078125,9.427345,5.078125,10.937505C5.078125,10.937505,7.421875,10.937505,7.421875,10.937505C7.421875,10.937505,7.421875,10.937505,7.421875,10.937505Z"
        fill="#FFFFFF" fill-opacity="1" />
    </g>
    <g>
      <path
        d="M5.421359,31.98388076171875C4.963714,32.44148076171875,4.963714,33.18348076171875,5.421359,33.64118076171875C5.879004,34.09878076171875,6.620995,34.09878076171875,7.078645,33.64118076171875C7.078645,33.64118076171875,5.421359,31.98388076171875,5.421359,31.98388076171875C5.421359,31.98388076171875,5.421359,31.98388076171875,5.421359,31.98388076171875ZM16.074225,22.98829076171875C16.074225,22.98829076171875,16.902925,23.81696076171875,16.902925,23.81696076171875C16.902925,23.81696076171875,16.909225,23.81056076171875,16.909225,23.81056076171875C16.909225,23.81056076171875,16.074225,22.98829076171875,16.074225,22.98829076171875C16.074225,22.98829076171875,16.074225,22.98829076171875,16.074225,22.98829076171875ZM18.300825,22.98829076171875C18.300825,22.98829076171875,17.465825000000002,23.81059076171875,17.465825000000002,23.81059076171875C17.465825000000002,23.81059076171875,17.472125,23.81693076171875,17.472125,23.81693076171875C17.472125,23.81693076171875,18.300825,22.98829076171875,18.300825,22.98829076171875C18.300825,22.98829076171875,18.300825,22.98829076171875,18.300825,22.98829076171875ZM27.011725,31.69928076171875C27.011725,31.69928076171875,27.846725,30.87694076171875,27.846725,30.87694076171875C27.846725,30.87694076171875,27.840325,30.870590761718752,27.840325,30.870590761718752C27.840325,30.870590761718752,27.011725,31.69928076171875,27.011725,31.69928076171875C27.011725,31.69928076171875,27.011725,31.69928076171875,27.011725,31.69928076171875ZM29.238325,31.69928076171875C29.238325,31.69928076171875,28.409725,30.87056076171875,28.409725,30.87056076171875C28.409725,30.87056076171875,28.403325,30.87695076171875,28.403325,30.87695076171875C28.403325,30.87695076171875,29.238325,31.69928076171875,29.238325,31.69928076171875C29.238325,31.69928076171875,29.238325,31.69928076171875,29.238325,31.69928076171875ZM33.261725,27.67580076171875C33.261725,27.67580076171875,34.090325,28.50445076171875,34.090325,28.50445076171875C34.090325,28.50445076171875,34.096725,28.49806076171875,34.096725,28.49806076171875C34.096725,28.49806076171875,33.261725,27.67580076171875,33.261725,27.67580076171875C33.261725,27.67580076171875,33.261725,27.67580076171875,33.261725,27.67580076171875ZM35.488325,27.67580076171875C35.488325,27.67580076171875,34.653324999999995,28.49809076171875,34.653324999999995,28.49809076171875C34.653324999999995,28.49809076171875,34.659725,28.50444076171875,34.659725,28.50444076171875C34.659725,28.50444076171875,35.488325,27.67580076171875,35.488325,27.67580076171875C35.488325,27.67580076171875,35.488325,27.67580076171875,35.488325,27.67580076171875ZM42.921425,36.76618076171875C43.379025,37.22378076171875,44.120925,37.22378076171875,44.578625,36.76618076171875C45.036225,36.30848076171875,45.036225,35.56648076171875,44.578625,35.10888076171875C44.578625,35.10888076171875,42.921425,36.76618076171875,42.921425,36.76618076171875C42.921425,36.76618076171875,42.921425,36.76618076171875,42.921425,36.76618076171875ZM7.078645,33.64118076171875C7.078645,33.64118076171875,16.902825,23.81693076171875,16.902825,23.81693076171875C16.902825,23.81693076171875,15.245625,22.15965076171875,15.245625,22.15965076171875C15.245625,22.15965076171875,5.421359,31.98388076171875,5.421359,31.98388076171875C5.421359,31.98388076171875,7.078645,33.64118076171875,7.078645,33.64118076171875C7.078645,33.64118076171875,7.078645,33.64118076171875,7.078645,33.64118076171875ZM16.909225,23.81056076171875C16.945525,23.77365076171875,16.988825,23.74435076171875,17.036625,23.72434076171875C17.036625,23.72434076171875,16.131425,21.56244676171875,16.131425,21.56244676171875C15.796925,21.70249176171875,15.493725,21.90766376171875,15.239225,22.16601976171875C15.239225,22.16601976171875,16.909225,23.81056076171875,16.909225,23.81056076171875C16.909225,23.81056076171875,16.909225,23.81056076171875,16.909225,23.81056076171875ZM17.036625,23.72434076171875C17.084425,23.70433076171875,17.135725,23.69403076171875,17.187525,23.69403076171875C17.187525,23.69403076171875,17.187525,21.35028076171875,17.187525,21.35028076171875C16.824925,21.35028076171875,16.465925,21.42240106171875,16.131425,21.56244676171875C16.131425,21.56244676171875,17.036625,23.72434076171875,17.036625,23.72434076171875C17.036625,23.72434076171875,17.036625,23.72434076171875,17.036625,23.72434076171875ZM17.187525,23.69403076171875C17.239325,23.69403076171875,17.290625,23.70433076171875,17.338324999999998,23.72434076171875C17.338324999999998,23.72434076171875,18.243524999999998,21.56244676171875,18.243524999999998,21.56244676171875C17.909125,21.42240106171875,17.550125,21.35028076171875,17.187525,21.35028076171875C17.187525,21.35028076171875,17.187525,23.69403076171875,17.187525,23.69403076171875C17.187525,23.69403076171875,17.187525,23.69403076171875,17.187525,23.69403076171875ZM17.338324999999998,23.72434076171875C17.386125,23.74435076171875,17.429425000000002,23.77365076171875,17.465825000000002,23.81056076171875C17.465825000000002,23.81056076171875,19.135725,22.16601976171875,19.135725,22.16601976171875C18.881325,21.90766376171875,18.578025,21.70249176171875,18.243524999999998,21.56244676171875C18.243524999999998,21.56244676171875,17.338324999999998,23.72434076171875,17.338324999999998,23.72434076171875C17.338324999999998,23.72434076171875,17.338324999999998,23.72434076171875,17.338324999999998,23.72434076171875ZM17.472125,23.81693076171875C17.472125,23.81693076171875,26.183125,32.52788076171875,26.183125,32.52788076171875C26.183125,32.52788076171875,27.840325,30.870590761718752,27.840325,30.870590761718752C27.840325,30.870590761718752,19.129424999999998,22.15965076171875,19.129424999999998,22.15965076171875C19.129424999999998,22.15965076171875,17.472125,23.81693076171875,17.472125,23.81693076171875C17.472125,23.81693076171875,17.472125,23.81693076171875,17.472125,23.81693076171875ZM26.176725,32.52148076171875C26.431225,32.77988076171875,26.734525,32.98508076171875,27.068925,33.12508076171875C27.068925,33.12508076171875,27.974025,30.96319076171875,27.974025,30.96319076171875C27.926425,30.94317076171875,27.882925,30.913870761718748,27.846725,30.87695076171875C27.846725,30.87695076171875,26.176725,32.52148076171875,26.176725,32.52148076171875C26.176725,32.52148076171875,26.176725,32.52148076171875,26.176725,32.52148076171875ZM27.068925,33.12508076171875C27.403425,33.26508076171875,27.762325,33.33728076171875,28.125025,33.33728076171875C28.125025,33.33728076171875,28.125025,30.99350076171875,28.125025,30.99350076171875C28.073325,30.99350076171875,28.021925,30.983190761718753,27.974025,30.96319076171875C27.974025,30.96319076171875,27.068925,33.12508076171875,27.068925,33.12508076171875C27.068925,33.12508076171875,27.068925,33.12508076171875,27.068925,33.12508076171875ZM28.125025,33.33728076171875C28.487625,33.33728076171875,28.846525,33.26508076171875,29.181125,33.12508076171875C29.181125,33.12508076171875,28.275925,30.96319076171875,28.275925,30.96319076171875C28.228125,30.983190761718753,28.176725,30.99350076171875,28.125025,30.99350076171875C28.125025,30.99350076171875,28.125025,33.33728076171875,28.125025,33.33728076171875C28.125025,33.33728076171875,28.125025,33.33728076171875,28.125025,33.33728076171875ZM29.181125,33.12508076171875C29.515425,32.98508076171875,29.818725,32.77988076171875,30.073325,32.52148076171875C30.073325,32.52148076171875,28.403325,30.87695076171875,28.403325,30.87695076171875C28.367025,30.913870761718748,28.323625,30.94317076171875,28.275925,30.96319076171875C28.275925,30.96319076171875,29.181125,33.12508076171875,29.181125,33.12508076171875C29.181125,33.12508076171875,29.181125,33.12508076171875,29.181125,33.12508076171875ZM30.066925,32.52788076171875C30.066925,32.52788076171875,34.090325,28.50444076171875,34.090325,28.50444076171875C34.090325,28.50444076171875,32.433125000000004,26.84715076171875,32.433125000000004,26.84715076171875C32.433125000000004,26.84715076171875,28.409725,30.870590761718752,28.409725,30.870590761718752C28.409725,30.870590761718752,30.066925,32.52788076171875,30.066925,32.52788076171875C30.066925,32.52788076171875,30.066925,32.52788076171875,30.066925,32.52788076171875ZM34.096725,28.49806076171875C34.132925,28.46116076171875,34.176424999999995,28.43184076171875,34.224025,28.41184076171875C34.224025,28.41184076171875,33.318925,26.24995076171875,33.318925,26.24995076171875C32.984525000000005,26.38998076171875,32.681225,26.59515076171875,32.426725000000005,26.853510761718752C32.426725000000005,26.853510761718752,34.096725,28.49806076171875,34.096725,28.49806076171875C34.096725,28.49806076171875,34.096725,28.49806076171875,34.096725,28.49806076171875ZM34.224025,28.41184076171875C34.271924999999996,28.39183076171875,34.323325,28.38153076171875,34.375025,28.38153076171875C34.375025,28.38153076171875,34.375025,26.03778076171875,34.375025,26.03778076171875C34.012325000000004,26.03778076171875,33.653425,26.109900761718748,33.318925,26.24995076171875C33.318925,26.24995076171875,34.224025,28.41184076171875,34.224025,28.41184076171875C34.224025,28.41184076171875,34.224025,28.41184076171875,34.224025,28.41184076171875ZM34.375025,28.38153076171875C34.426725000000005,28.38153076171875,34.478125,28.39183076171875,34.525925,28.41184076171875C34.525925,28.41184076171875,35.431125,26.24995076171875,35.431125,26.24995076171875C35.096525,26.109900761718748,34.737625,26.03778076171875,34.375025,26.03778076171875C34.375025,26.03778076171875,34.375025,28.38153076171875,34.375025,28.38153076171875C34.375025,28.38153076171875,34.375025,28.38153076171875,34.375025,28.38153076171875ZM34.525925,28.41184076171875C34.573625,28.43184076171875,34.617025,28.46116076171875,34.653324999999995,28.49806076171875C34.653324999999995,28.49806076171875,36.323325,26.853510761718752,36.323325,26.853510761718752C36.068725,26.59515076171875,35.765425,26.38998076171875,35.431125,26.24995076171875C35.431125,26.24995076171875,34.525925,28.41184076171875,34.525925,28.41184076171875C34.525925,28.41184076171875,34.525925,28.41184076171875,34.525925,28.41184076171875ZM34.659725,28.50444076171875C34.659725,28.50444076171875,42.921425,36.76618076171875,42.921425,36.76618076171875C42.921425,36.76618076171875,44.578625,35.10888076171875,44.578625,35.10888076171875C44.578625,35.10888076171875,36.316925,26.84715076171875,36.316925,26.84715076171875C36.316925,26.84715076171875,34.659725,28.50444076171875,34.659725,28.50444076171875C34.659725,28.50444076171875,34.659725,28.50444076171875,34.659725,28.50444076171875Z"
        fill="#FFFFFF" fill-opacity="1" />
    </g>
    <g>
      <path
        d="M30.468745,21.484375C31.547435,21.484375,32.421875,20.609935,32.421875,19.531245C32.421875,18.452569,31.547435,17.578125,30.468745,17.578125C29.390069,17.578125,28.515625,18.452569,28.515625,19.531245C28.515625,20.609935,29.390069,21.484375,30.468745,21.484375C30.468745,21.484375,30.468745,21.484375,30.468745,21.484375Z"
        fill="#FFFFFF" fill-opacity="1" />
    </g>
  </g>
</svg>