<svg xmlns="http://www.w3.org/2000/svg" xmlns:xlink="http://www.w3.org/1999/xlink" fill="none" version="1.1" width="50"
  height="50" viewBox="0 0 50 50">
  <g>
    <g></g>
    <g>
      <path
        d="M27.734375,14.062505C27.734375,13.415291,27.209705,12.890625,26.562505,12.890625C25.915291,12.890625,25.390625,13.415291,25.390625,14.062505C25.390625,14.062505,27.734375,14.062505,27.734375,14.062505C27.734375,14.062505,27.734375,14.062505,27.734375,14.062505ZM25.390625,35.937525C25.390625,36.584725,25.915291,37.109425,26.562505,37.109425C27.209705,37.109425,27.734375,36.584725,27.734375,35.937525C27.734375,35.937525,25.390625,35.937525,25.390625,35.937525C25.390625,35.937525,25.390625,35.937525,25.390625,35.937525ZM25.390625,14.062505C25.390625,14.062505,25.390625,35.937525,25.390625,35.937525C25.390625,35.937525,27.734375,35.937525,27.734375,35.937525C27.734375,35.937525,27.734375,14.062505,27.734375,14.062505C27.734375,14.062505,25.390625,14.062505,25.390625,14.062505C25.390625,14.062505,25.390625,14.062505,25.390625,14.062505Z"
        fill="#FFFFFF" fill-opacity="1" />
    </g>
    <g>
      <path
        d="M44.531275,15.234375C45.178475,15.234375,45.703175,14.709705,45.703175,14.062505C45.703175,13.415291,45.178475,12.890625,44.531275,12.890625C44.531275,12.890625,44.531275,15.234375,44.531275,15.234375C44.531275,15.234375,44.531275,15.234375,44.531275,15.234375ZM35.156255,14.062505C35.156255,14.062505,35.156255,12.890625,35.156255,12.890625C34.509041,12.890625,33.984375,13.415291,33.984375,14.062505C33.984375,14.062505,35.156255,14.062505,35.156255,14.062505C35.156255,14.062505,35.156255,14.062505,35.156255,14.062505ZM33.984375,35.937525C33.984375,36.584725,34.509041,37.109425,35.156255,37.109425C35.803455,37.109425,36.328125,36.584725,36.328125,35.937525C36.328125,35.937525,33.984375,35.937525,33.984375,35.937525C33.984375,35.937525,33.984375,35.937525,33.984375,35.937525ZM44.531275,12.890625C44.531275,12.890625,35.156255,12.890625,35.156255,12.890625C35.156255,12.890625,35.156255,15.234375,35.156255,15.234375C35.156255,15.234375,44.531275,15.234375,44.531275,15.234375C44.531275,15.234375,44.531275,12.890625,44.531275,12.890625C44.531275,12.890625,44.531275,12.890625,44.531275,12.890625ZM33.984375,14.062505C33.984375,14.062505,33.984375,35.937525,33.984375,35.937525C33.984375,35.937525,36.328125,35.937525,36.328125,35.937525C36.328125,35.937525,36.328125,14.062505,36.328125,14.062505C36.328125,14.062505,33.984375,14.062505,33.984375,14.062505C33.984375,14.062505,33.984375,14.062505,33.984375,14.062505Z"
        fill="#FFFFFF" fill-opacity="1" />
    </g>
    <g>
      <path
        d="M42.187495,26.171875C42.834705,26.171875,43.359375,25.647205,43.359375,25.000005C43.359375,24.352791,42.834705,23.828125,42.187495,23.828125C42.187495,23.828125,42.187495,26.171875,42.187495,26.171875C42.187495,26.171875,42.187495,26.171875,42.187495,26.171875ZM35.156255,23.828125C34.509041,23.828125,33.984375,24.352791,33.984375,25.000005C33.984375,25.647205,34.509041,26.171875,35.156255,26.171875C35.156255,26.171875,35.156255,23.828125,35.156255,23.828125C35.156255,23.828125,35.156255,23.828125,35.156255,23.828125ZM42.187495,23.828125C42.187495,23.828125,35.156255,23.828125,35.156255,23.828125C35.156255,23.828125,35.156255,26.171875,35.156255,26.171875C35.156255,26.171875,42.187495,26.171875,42.187495,26.171875C42.187495,26.171875,42.187495,23.828125,42.187495,23.828125C42.187495,23.828125,42.187495,23.828125,42.187495,23.828125Z"
        fill="#FFFFFF" fill-opacity="1" />
    </g>
    <g>
      <path
        d="M14.062499741210937,23.8280958984375C13.415279741210938,23.8280958984375,12.890629741210937,24.3527958984375,12.890629741210937,24.9999958984375C12.890629741210937,25.647195898437502,13.415279741210938,26.171895898437498,14.062499741210937,26.171895898437498C14.062499741210937,26.171895898437498,14.062499741210937,23.8280958984375,14.062499741210937,23.8280958984375C14.062499741210937,23.8280958984375,14.062499741210937,23.8280958984375,14.062499741210937,23.8280958984375ZM18.75000974121094,24.9999958984375C18.75000974121094,24.9999958984375,19.92190974121094,24.9999958984375,19.92190974121094,24.9999958984375C19.92190974121094,24.3527958984375,19.397209741210936,23.8280958984375,18.75000974121094,23.8280958984375C18.75000974121094,23.8280958984375,18.75000974121094,24.9999958984375,18.75000974121094,24.9999958984375C18.75000974121094,24.9999958984375,18.75000974121094,24.9999958984375,18.75000974121094,24.9999958984375ZM18.75000974121094,29.6874958984375C18.75000974121094,29.6874958984375,19.92190974121094,29.6874958984375,19.92190974121094,29.6874958984375C19.92190974121094,29.6874958984375,18.75000974121094,29.6874958984375,18.75000974121094,29.6874958984375C18.75000974121094,29.6874958984375,18.75000974121094,29.6874958984375,18.75000974121094,29.6874958984375ZM6.249999741210938,29.6874958984375C6.249999741210938,29.6874958984375,5.078122572810938,29.6874958984375,5.078122572810938,29.6874958984375C5.078122572810938,29.6874958984375,6.249999741210938,29.6874958984375,6.249999741210938,29.6874958984375C6.249999741210938,29.6874958984375,6.249999741210938,29.6874958984375,6.249999741210938,29.6874958984375ZM6.249999741210938,20.3124858984375C6.249999741210938,20.3124858984375,7.421869741210937,20.3124858984375,7.421869741210937,20.3124858984375C7.421869741210937,20.3124858984375,7.421869741210937,20.3101858984375,7.421869741210937,20.3101858984375C7.421869741210937,20.3101858984375,6.249999741210938,20.3124858984375,6.249999741210938,20.3124858984375C6.249999741210938,20.3124858984375,6.249999741210938,20.3124858984375,6.249999741210938,20.3124858984375ZM17.419409741210938,19.0406558984375C17.579909741210937,19.6676458984375,18.218409741210937,20.0457858984375,18.84530974121094,19.8852558984375C19.472309741210935,19.724715898437502,19.850509741210935,19.0863158984375,19.68990974121094,18.4593258984375C19.68990974121094,18.4593258984375,17.419409741210938,19.0406558984375,17.419409741210938,19.0406558984375C17.419409741210938,19.0406558984375,17.419409741210938,19.0406558984375,17.419409741210938,19.0406558984375ZM14.062499741210937,26.171895898437498C14.062499741210937,26.171895898437498,18.75000974121094,26.171895898437498,18.75000974121094,26.171895898437498C18.75000974121094,26.171895898437498,18.75000974121094,23.8280958984375,18.75000974121094,23.8280958984375C18.75000974121094,23.8280958984375,14.062499741210937,23.8280958984375,14.062499741210937,23.8280958984375C14.062499741210937,23.8280958984375,14.062499741210937,26.171895898437498,14.062499741210937,26.171895898437498C14.062499741210937,26.171895898437498,14.062499741210937,26.171895898437498,14.062499741210937,26.171895898437498ZM17.578109741210938,24.9999958984375C17.578109741210938,24.9999958984375,17.578109741210938,29.6874958984375,17.578109741210938,29.6874958984375C17.578109741210938,29.6874958984375,19.92190974121094,29.6874958984375,19.92190974121094,29.6874958984375C19.92190974121094,29.6874958984375,19.92190974121094,24.9999958984375,19.92190974121094,24.9999958984375C19.92190974121094,24.9999958984375,17.578109741210938,24.9999958984375,17.578109741210938,24.9999958984375C17.578109741210938,24.9999958984375,17.578109741210938,24.9999958984375,17.578109741210938,24.9999958984375ZM17.578109741210938,29.6874958984375C17.578109741210938,31.0341958984375,17.043109741210937,32.3259958984375,16.09080974121094,33.2782958984375C16.09080974121094,33.2782958984375,17.74810974121094,34.9354958984375,17.74810974121094,34.9354958984375C19.139909741210936,33.5435958984375,19.92190974121094,31.6559958984375,19.92190974121094,29.6874958984375C19.92190974121094,29.6874958984375,17.578109741210938,29.6874958984375,17.578109741210938,29.6874958984375C17.578109741210938,29.6874958984375,17.578109741210938,29.6874958984375,17.578109741210938,29.6874958984375ZM16.09080974121094,33.2782958984375C15.138409741210937,34.2305958984375,13.846799741210937,34.765595898437496,12.499999741210939,34.765595898437496C12.499999741210939,34.765595898437496,12.499999741210939,37.1093958984375,12.499999741210939,37.1093958984375C14.468409741210937,37.1093958984375,16.35620974121094,36.3273958984375,17.74810974121094,34.9354958984375C17.74810974121094,34.9354958984375,16.09080974121094,33.2782958984375,16.09080974121094,33.2782958984375C16.09080974121094,33.2782958984375,16.09080974121094,33.2782958984375,16.09080974121094,33.2782958984375ZM12.499999741210939,34.765595898437496C11.153189741210937,34.765595898437496,9.861549741210936,34.2305958984375,8.909219741210936,33.2782958984375C8.909219741210936,33.2782958984375,7.251939741210938,34.9354958984375,7.251939741210938,34.9354958984375C8.643809741210937,36.3273958984375,10.531599741210938,37.1093958984375,12.499999741210939,37.1093958984375C12.499999741210939,37.1093958984375,12.499999741210939,34.765595898437496,12.499999741210939,34.765595898437496C12.499999741210939,34.765595898437496,12.499999741210939,34.765595898437496,12.499999741210939,34.765595898437496ZM8.909219741210936,33.2782958984375C7.956889741210937,32.3259958984375,7.421869741210937,31.0341958984375,7.421869741210937,29.6874958984375C7.421869741210937,29.6874958984375,5.078122572810938,29.6874958984375,5.078122572810938,29.6874958984375C5.078122572810938,31.6559958984375,5.860067741210938,33.5435958984375,7.251939741210938,34.9354958984375C7.251939741210938,34.9354958984375,8.909219741210936,33.2782958984375,8.909219741210936,33.2782958984375C8.909219741210936,33.2782958984375,8.909219741210936,33.2782958984375,8.909219741210936,33.2782958984375ZM7.421869741210937,29.6874958984375C7.421869741210937,29.6874958984375,7.421869741210937,20.3124858984375,7.421869741210937,20.3124858984375C7.421869741210937,20.3124858984375,5.078122572810938,20.3124858984375,5.078122572810938,20.3124858984375C5.078122572810938,20.3124858984375,5.078122572810938,29.6874958984375,5.078122572810938,29.6874958984375C5.078122572810938,29.6874958984375,7.421869741210937,29.6874958984375,7.421869741210937,29.6874958984375C7.421869741210937,29.6874958984375,7.421869741210937,29.6874958984375,7.421869741210937,29.6874958984375ZM7.421869741210937,20.3101858984375C7.419429741210937,19.0724558984375,7.869129741210937,17.8764558984375,8.686439741210938,16.946935898437502C8.686439741210938,16.946935898437502,6.926349741210938,15.3992958984375,6.926349741210938,15.3992958984375C5.731812741210938,16.7577958984375,5.074563201210937,18.5058158984375,5.078124135310937,20.3147958984375C5.078124135310937,20.3147958984375,7.421869741210937,20.3101858984375,7.421869741210937,20.3101858984375C7.421869741210937,20.3101858984375,7.421869741210937,20.3101858984375,7.421869741210937,20.3101858984375ZM8.686439741210938,16.946935898437502C9.503749741210937,16.0174358984375,10.632409741210937,15.418435898437501,11.860279741210938,15.2625158984375C11.860279741210938,15.2625158984375,11.565029741210937,12.9374391984375,11.565029741210937,12.9374391984375C9.770449741210937,13.165321898437501,8.120879741210938,14.0407858984375,6.926349741210938,15.3992958984375C6.926349741210938,15.3992958984375,8.686439741210938,16.946935898437502,8.686439741210938,16.946935898437502C8.686439741210938,16.946935898437502,8.686439741210938,16.946935898437502,8.686439741210938,16.946935898437502ZM11.860279741210938,15.2625158984375C13.088159741210937,15.1065958984375,14.330699741210937,15.4044958984375,15.354409741210938,16.1002158984375C15.354409741210938,16.1002158984375,16.671809741210936,14.1617758984375,16.671809741210936,14.1617758984375C15.175609741210938,13.1449418984375,13.359609741210937,12.7095548984375,11.565029741210937,12.9374391984375C11.565029741210937,12.9374391984375,11.860279741210938,15.2625158984375,11.860279741210938,15.2625158984375C11.860279741210938,15.2625158984375,11.860279741210938,15.2625158984375,11.860279741210938,15.2625158984375ZM15.354409741210938,16.1002158984375C16.378109741210938,16.7959358984375,17.11240974121094,17.8415958984375,17.419409741210938,19.0406558984375C17.419409741210938,19.0406558984375,19.68990974121094,18.4593258984375,19.68990974121094,18.4593258984375C19.241209741210938,16.7068658984375,18.168009741210938,15.1786058984375,16.671809741210936,14.1617758984375C16.671809741210936,14.1617758984375,15.354409741210938,16.1002158984375,15.354409741210938,16.1002158984375C15.354409741210938,16.1002158984375,15.354409741210938,16.1002158984375,15.354409741210938,16.1002158984375Z"
        fill="#FFFFFF" fill-opacity="1" />
    </g>
  </g>
</svg>