<svg xmlns="http://www.w3.org/2000/svg" width="32" height="32" viewBox="0 0 24 24">
  <g fill="none">
    <path
      d="M24 0v24H0V0zM12.594 23.258l-.012.002l-.071.035l-.02.004l-.014-.004l-.071-.036q-.016-.004-.024.006l-.004.01l-.017.428l.005.02l.01.013l.104.074l.015.004l.012-.004l.104-.074l.012-.016l.004-.017l-.017-.427q-.004-.016-.016-.018m.264-.113l-.014.002l-.184.093l-.01.01l-.003.011l.018.43l.005.012l.008.008l.201.092q.019.005.029-.008l.004-.014l-.034-.614q-.005-.018-.02-.022m-.715.002a.02.02 0 0 0-.027.006l-.006.014l-.034.614q.001.018.017.024l.015-.002l.201-.093l.01-.008l.003-.011l.018-.43l-.003-.012l-.01-.01z" />
    <path fill="currentColor"
      d="M12 3C6.656 3 2 6.643 2 11.5c0 2.798 1.577 5.223 3.906 6.744c.174.383.143.852.115 1.293c-.01.16-.021.316-.021.463a1 1 0 0 0 1 1c1.25 0 2.071-.411 2.639-.81c.197-.14.357-.272.45-.345q.93.154 1.911.155c5.344 0 10-3.643 10-8.5a7.43 7.43 0 0 0-.96-3.658l-.003.002l-11 7a1 1 0 0 1-1.405-.348l-2-3.5a1 1 0 0 1 1.383-1.353l1.58.947a1 1 0 0 0 .944.046l9.297-4.427C17.974 4.228 15.103 3 12 3" />
  </g>
</svg>