<svg xmlns="http://www.w3.org/2000/svg" xmlns:xlink="http://www.w3.org/1999/xlink" fill="none" version="1.1" width="50"
  height="50" viewBox="0 0 50 50">
  <defs>
    <clipPath id="master_svg0_67_04160">
      <rect x="0" y="0" width="50" height="50" rx="0" />
    </clipPath>
  </defs>
  <g clip-path="url(#master_svg0_67_04160)">
    <g>
      <path
        d="M0,16.7708C0,10.8386,0,7.87254,1.17278,5.61485C2.16106,3.71231,3.71231,2.16106,5.61485,1.17278C7.87254,0,10.8386,0,16.7708,0C16.7708,0,33.2292,0,33.2292,0C39.1614,0,42.1275,0,44.3851,1.17278C46.2877,2.16106,47.839,3.71231,48.8272,5.61485C50,7.87254,50,10.8386,50,16.7708C50,16.7708,50,33.2292,50,33.2292C50,39.1614,50,42.1275,48.8272,44.3851C47.839,46.2877,46.2877,47.839,44.3851,48.8272C42.1275,50,39.1614,50,33.2292,50C33.2292,50,16.7708,50,16.7708,50C10.8386,50,7.87254,50,5.61485,48.8272C3.71231,47.839,2.16106,46.2877,1.17278,44.3851C0,42.1275,0,39.1614,0,33.2292C0,33.2292,0,16.7708,0,16.7708C0,16.7708,0,16.7708,0,16.7708Z"
        fill="#000000" fill-opacity="1" />
    </g>
    <g>
      <path
        d="M15.170387844543457,29.938203688049317C15.373867844543458,28.253403688049318,16.064847844543458,27.310203688049317,17.366957844543457,26.343203688049318C19.230057844543456,25.03360368804932,21.557337844543458,25.774403688049315,21.557337844543458,25.774403688049315C21.557337844543458,25.774403688049315,21.557337844543458,21.379703688049318,21.557337844543458,21.379703688049318C22.123127844543458,21.365203688049316,22.689137844543456,21.398703688049316,23.24874784454346,21.47990368804932C23.24874784454346,21.47990368804932,23.24874784454346,27.135503688049315,23.24874784454346,27.135503688049315C23.24874784454346,27.135503688049315,20.922177844543455,26.394703688049315,19.059077844543456,27.705003688049317C17.757667844543455,28.671203688049317,17.065267844543456,29.615203688049316,16.86249784454346,31.300003688049316C16.856147844543457,32.21490368804932,17.027837844543456,33.41070368804932,17.818427844543457,34.444703688049316C17.622957844543457,34.344503688049315,17.423717844543457,34.23030368804932,17.22070784454346,34.10210368804931C15.479137844543457,32.93260368804931,15.161907844543457,31.178103688049315,15.170387844543457,29.938203688049317C15.170387844543457,29.938203688049317,15.170387844543457,29.938203688049317,15.170387844543457,29.938203688049317ZM32.858157844543456,13.253783688049317C31.57645784454346,11.849363688049316,31.09175784454346,10.431400688049317,30.91655784454346,9.435303688049316C30.91655784454346,9.435303688049316,32.52885784454345,9.435303688049316,32.52885784454345,9.435303688049316C32.52885784454345,9.435303688049316,32.207457844543455,12.047093688049316,34.55025784454345,14.615553688049317C34.55025784454345,14.615553688049317,34.58275784454346,14.650083688049317,34.58275784454346,14.650083688049317C33.95135784454345,14.252893688049316,33.372257844543455,13.784073688049316,32.858157844543456,13.253783688049317C32.858157844543456,13.253783688049317,32.858157844543456,13.253783688049317,32.858157844543456,13.253783688049317ZM40.62495784454346,17.235473688049318C40.62495784454346,17.235473688049318,40.62495784454346,22.777303688049315,40.62495784454346,22.777303688049315C40.62495784454346,22.777303688049315,38.56755784454346,22.696803688049314,37.04505784454346,22.309403688049315C34.91905784454346,21.767703688049316,33.55265784454346,20.936803688049316,33.55265784454346,20.936803688049316C33.55265784454346,20.936803688049316,32.60875784454346,20.344303688049315,32.53245784454346,20.303003688049316C32.53245784454346,20.303003688049316,32.53245784454346,31.747003688049315,32.53245784454346,31.747003688049315C32.53245784454346,32.38420368804931,32.357957844543456,33.97540368804931,31.825957844543456,35.30270368804932C31.13135784454346,37.03890368804932,30.05965784454346,38.17850368804932,29.862557844543456,38.41140368804932C29.862557844543456,38.41140368804932,28.558957844543457,39.95210368804932,26.25915784454346,40.98950368804932C24.186257844543455,41.92530368804932,22.366307844543456,41.90150368804932,21.822277844543457,41.92530368804932C21.822277844543457,41.92530368804932,18.676147844543458,42.04990368804932,15.845117844543458,40.21000368804931C15.232917844543458,39.804503688049316,14.661467844543457,39.34520368804932,14.138157844543457,38.838103688049316C14.138157844543457,38.838103688049316,14.152288944543457,38.84820368804932,14.152288944543457,38.84820368804932C16.98401784454346,40.68810368804932,20.129457844543456,40.563503688049316,20.129457844543456,40.563503688049316C20.674187844543457,40.53980368804932,22.494187844543458,40.563503688049316,24.566357844543457,39.627703688049316C26.863957844543457,38.59030368804932,28.169757844543454,37.049803688049316,28.169757844543454,37.049803688049316C28.364757844543455,36.81680368804932,29.441357844543457,35.67720368804932,30.13305784454346,33.940203688049316C30.663657844543458,32.61360368804932,30.839657844543456,31.021703688049318,30.839657844543456,30.384503688049318C30.839657844543456,30.384503688049318,30.839657844543456,18.941893688049316,30.839657844543456,18.941893688049316C30.915957844543456,18.983883688049318,31.859057844543457,19.576403688049318,31.859057844543457,19.576403688049318C31.859057844543457,19.576403688049318,33.226257844543454,20.407903688049316,35.352157844543456,20.948903688049317C36.87545784454346,21.336303688049316,38.932157844543454,21.416903688049317,38.932157844543454,21.416903688049317C38.932157844543454,21.416903688049317,38.932157844543454,17.074303688049316,38.932157844543454,17.074303688049316C39.635757844543456,17.232083688049315,40.235657844543454,17.274743688049316,40.62495784454346,17.235473688049318C40.62495784454346,17.235473688049318,40.62495784454346,17.235473688049318,40.62495784454346,17.235473688049318Z"
        fill="#FD355A" fill-opacity="1" />
    </g>
    <g>
      <path
        d="M38.93286648254394,17.074303688049316C38.93286648254394,17.074303688049316,38.93286648254394,21.415503688049316,38.93286648254394,21.415503688049316C38.93286648254394,21.415503688049316,36.876166482543944,21.335003688049316,35.352866482543945,20.947603688049316C33.22696648254394,20.405903688049314,31.859866482543946,19.575003688049314,31.859866482543946,19.575003688049314C31.859866482543946,19.575003688049314,30.916566482543946,18.982533688049315,30.840366482543946,18.940543688049317C30.840366482543946,18.940543688049317,30.840366482543946,30.385803688049318,30.840366482543946,30.385803688049318C30.840366482543946,31.023003688049318,30.665866482543944,32.61500368804931,30.133766482543944,33.941503688049316C29.439266482543946,35.67850368804932,28.367566482543946,36.81810368804932,28.170366482543944,37.05110368804932C28.170366482543944,37.05110368804932,26.866166482543946,38.59170368804932,24.567166482543946,39.629003688049316C22.494966482543944,40.56490368804931,20.674906482543946,40.54110368804932,20.130176482543945,40.56490368804931C20.130176482543945,40.56490368804931,16.984756482543943,40.689503688049314,14.153016482543945,38.849603688049314C14.153016482543945,38.849603688049314,14.138876482543946,38.83950368804932,14.138876482543946,38.83950368804932C13.839906482543945,38.550003688049316,13.558496482543944,38.244303688049314,13.296006482543945,37.92390368804932C12.392356482543946,36.82220368804931,11.838446482543945,35.519403688049316,11.699262482543945,35.147603688049315C11.699020482543945,35.14600368804932,11.699020482543945,35.14450368804931,11.699262482543945,35.142903688049316C11.475294482543946,34.496903688049315,11.004751582543946,32.945503688049314,11.069045032543945,31.442903688049316C11.182794482543946,28.791903688049317,12.115396482543945,27.164603688049315,12.361986482543946,26.757003688049316C13.015016482543945,25.645303688049317,13.864376482543946,24.65070368804932,14.872256482543946,23.817403688049318C15.761636482543945,23.098303688049317,16.769736482543944,22.526203688049314,17.855176482543946,22.124603688049316C19.028596482543946,21.652903688049314,20.285106482543945,21.400103688049317,21.557366482543948,21.379703688049318C21.557366482543948,21.379703688049318,21.557366482543948,25.774403688049315,21.557366482543948,25.774403688049315C21.557366482543948,25.774403688049315,19.230076482543943,25.036303688049315,17.367676482543946,26.343203688049318C16.065566482543947,27.310203688049317,15.374586482543945,28.253403688049318,15.171106482543944,29.938203688049317C15.162626482543946,31.178103688049315,15.479856482543944,32.93260368804931,17.220026482543943,34.10280368804932C17.423026482543946,34.23140368804931,17.622266482543946,34.345603688049316,17.817736482543946,34.44540368804932C18.121746482543944,34.84060368804931,18.491766482543945,35.18490368804932,18.912846482543944,35.46450368804932C20.612736482543944,36.54050368804931,22.037166482543945,36.615703688049315,23.858466482543946,35.91690368804932C25.072966482543947,35.449603688049315,25.987266482543944,34.396703688049314,26.411166482543948,33.22990368804932C26.677566482543945,32.501203688049316,26.673966482543946,31.767903688049316,26.673966482543946,31.009503688049318C26.673966482543946,31.009503688049318,26.673966482543946,9.435303688049316,26.673966482543946,9.435303688049316C26.673966482543946,9.435303688049316,30.913066482543947,9.435303688049316,30.913066482543947,9.435303688049316C31.088366482543947,10.431400688049317,31.572966482543944,11.849363688049316,32.85466648254395,13.253783688049317C33.36876648254395,13.784073688049316,33.947866482543944,14.252893688049316,34.57916648254395,14.650083688049317C34.765766482543945,14.843073688049316,35.71966648254394,15.797193688049315,36.94396648254394,16.382923688049317C37.577166482543944,16.685703688049315,38.24446648254394,16.917683688049316,38.93286648254394,17.074303688049316C38.93286648254394,17.074303688049316,38.93286648254394,17.074303688049316,38.93286648254394,17.074303688049316C38.93286648254394,17.074303688049316,38.93286648254394,17.074303688049316,38.93286648254394,17.074303688049316Z"
        fill="#FFFFFF" fill-opacity="1" />
    </g>
    <g>
      <path
        d="M10.012054443359375,33.79812240600586C10.012054443359375,33.79812240600586,10.012054443359375,33.80150735600586,10.012054443359375,33.80150735600586C10.012054443359375,33.80150735600586,10.117241443359376,34.08658940600586,10.117241443359376,34.08658940600586C10.105159343359375,34.05340840600586,10.066069643359375,33.95251440600586,10.012054443359375,33.79812240600586C10.012054443359375,33.79812240600586,10.012054443359375,33.79812240600586,10.012054443359375,33.79812240600586Z"
        fill="#33F3ED" fill-opacity="1" />
    </g>
    <g>
      <path
        d="M17.85523,22.1246055065918C16.76978,22.526325506591796,15.76169,23.098435506591798,14.8723,23.817485506591797C13.8641,24.652665506591795,13.01496,25.649355506591796,12.362729999999999,26.7631255065918C12.11616,27.169415506591797,11.18355,28.797975506591797,11.0698,31.449025506591795C11.00551,32.951625506591796,11.47605,34.502925506591794,11.70002,35.1490255065918C11.699770000000001,35.1505255065918,11.699770000000001,35.1522255065918,11.70002,35.1538255065918C11.84132,35.5221255065918,12.39311,36.824925506591796,13.29675,37.9300255065918C13.559239999999999,38.250425506591796,13.84067,38.5561255065918,14.13964,38.8455255065918C13.18173,38.210625506591796,12.32743,37.4429255065918,11.60464,36.567625506591796C10.70877,35.4753255065918,10.156268,34.18612550659179,10.012137,33.8055255065918C10.011968,33.802825506591795,10.011968,33.8001255065918,10.012137,33.79742550659179C10.012137,33.79742550659179,10.012137,33.7926255065918,10.012137,33.7926255065918C9.787464,33.1473255065918,9.3155081,31.595225506591795,9.38121464,30.0906255065918C9.494965,27.439605506591796,10.42757,25.8123955065918,10.674150000000001,25.404745506591798C11.32618,24.290865506591796,12.17535,23.294135506591797,13.18371,22.459115506591797C14.07292,21.739815506591796,15.08106,21.167665506591796,16.16665,20.766226506591796C16.84378,20.496956506591797,17.54918,20.2983085065918,18.270670000000003,20.173715506591797C19.357979999999998,19.991801106591797,20.468400000000003,19.9760312065918,21.5609,20.126990506591795C21.5609,20.126990506591795,21.5609,21.379725506591797,21.5609,21.379725506591797C20.2875,21.399695506591797,19.02974,21.652515506591797,17.85523,22.1246055065918C17.85523,22.1246055065918,17.85523,22.1246055065918,17.85523,22.1246055065918Z"
        fill="#33F3ED" fill-opacity="1" />
    </g>
    <g>
      <path
        d="M30.916618502807616,9.435356030883788C30.916618502807616,9.435356030883788,26.677488502807616,9.435356030883788,26.677488502807616,9.435356030883788C26.677488502807616,9.435356030883788,26.677488502807616,31.01021603088379,26.677488502807616,31.01021603088379C26.677488502807616,31.768616030883788,26.677488502807616,32.500016030883785,26.414668502807615,33.23061603088379C25.986508502807617,34.39661603088379,25.075808502807618,35.44971603088379,23.861998502807616,35.91691603088379C22.039888502807617,36.61841603088379,20.615528502807617,36.54051603088379,18.91635850280762,35.46461603088379C18.494541502807618,35.186216030883784,18.123573502807616,34.84301603088379,17.818418502807617,34.44881603088379C19.266088502807616,35.18891603088379,20.561848502807617,35.17611603088379,22.167058502807617,34.558516030883794C23.380158502807618,34.091216030883785,24.292268502807616,33.03831603088379,24.71900850280762,31.87151603088379C24.986078502807615,31.14291603088379,24.982538502807618,30.40961603088379,24.982538502807618,29.65191603088379C24.982538502807618,29.65191603088379,24.982538502807618,8.072916030883789,24.982538502807618,8.072916030883789C24.982538502807618,8.072916030883789,30.836118502807615,8.072916030883789,30.836118502807615,8.072916030883789C30.836118502807615,8.072916030883789,30.770418502807615,8.609224030883789,30.916618502807616,9.435356030883788C30.916618502807616,9.435356030883788,30.916618502807616,9.435356030883788,30.916618502807616,9.435356030883788ZM38.93281850280762,15.87375603088379C38.93281850280762,15.87375603088379,38.93281850280762,17.07435603088379,38.93281850280762,17.07435603088379C38.245618502807616,16.91747603088379,37.57941850280761,16.68549603088379,36.94751850280762,16.38297603088379C35.723118502807615,15.797236030883788,34.76921850280762,14.843126030883788,34.58281850280761,14.65013603088379C34.799118502807616,14.786336030883788,35.023818502807615,14.91023603088379,35.255418502807615,15.021216030883789C36.74401850280762,15.733586030883789,38.21011850280762,15.94620603088379,38.93281850280762,15.87375603088379C38.93281850280762,15.87375603088379,38.93281850280762,15.87375603088379,38.93281850280762,15.87375603088379Z"
        fill="#33F3ED" fill-opacity="1" />
    </g>
  </g>
</svg>