<svg xmlns="http://www.w3.org/2000/svg" xmlns:xlink="http://www.w3.org/1999/xlink" fill="none" version="1.1" width="50"
  height="50" viewBox="0 0 50 50">
  <g>
    <g></g>
    <g>
      <path
        d="M7.812505,21.875005C7.812505,21.875005,7.812505,20.703125,7.812505,20.703125C7.165291,20.703125,6.640625,21.227791,6.640625,21.875005C6.640625,21.875005,7.812505,21.875005,7.812505,21.875005C7.812505,21.875005,7.812505,21.875005,7.812505,21.875005ZM42.187525,21.875005C42.187525,21.875005,43.359425,21.875005,43.359425,21.875005C43.359425,21.227791,42.834725,20.703125,42.187525,20.703125C42.187525,20.703125,42.187525,21.875005,42.187525,21.875005C42.187525,21.875005,42.187525,21.875005,42.187525,21.875005ZM7.812505,23.046875C7.812505,23.046875,42.187525,23.046875,42.187525,23.046875C42.187525,23.046875,42.187525,20.703125,42.187525,20.703125C42.187525,20.703125,7.812505,20.703125,7.812505,20.703125C7.812505,20.703125,7.812505,23.046875,7.812505,23.046875C7.812505,23.046875,7.812505,23.046875,7.812505,23.046875ZM41.015625,21.875005C41.015625,21.875005,41.015625,39.062525,41.015625,39.062525C41.015625,39.062525,43.359425,39.062525,43.359425,39.062525C43.359425,39.062525,43.359425,21.875005,43.359425,21.875005C43.359425,21.875005,41.015625,21.875005,41.015625,21.875005C41.015625,21.875005,41.015625,21.875005,41.015625,21.875005ZM41.015625,39.062525C41.015625,39.166125,40.974525,39.265425,40.901225,39.338725C40.901225,39.338725,42.558425,40.995925,42.558425,40.995925C43.071225,40.483125,43.359425,39.787625,43.359425,39.062525C43.359425,39.062525,41.015625,39.062525,41.015625,39.062525C41.015625,39.062525,41.015625,39.062525,41.015625,39.062525ZM40.901225,39.338725C40.827925,39.412025,40.728625,39.453125,40.625025,39.453125C40.625025,39.453125,40.625025,41.796925,40.625025,41.796925C41.350125,41.796925,42.045625,41.508725,42.558425,40.995925C42.558425,40.995925,40.901225,39.338725,40.901225,39.338725C40.901225,39.338725,40.901225,39.338725,40.901225,39.338725ZM40.625025,39.453125C40.625025,39.453125,9.375005,39.453125,9.375005,39.453125C9.375005,39.453125,9.375005,41.796925,9.375005,41.796925C9.375005,41.796925,40.625025,41.796925,40.625025,41.796925C40.625025,41.796925,40.625025,39.453125,40.625025,39.453125C40.625025,39.453125,40.625025,39.453125,40.625025,39.453125ZM9.375005,39.453125C9.271395,39.453125,9.172045,39.412025,9.098785,39.338725C9.098785,39.338725,7.441505,40.995925,7.441505,40.995925C7.954305,41.508725,8.649805,41.796925,9.375005,41.796925C9.375005,41.796925,9.375005,39.453125,9.375005,39.453125C9.375005,39.453125,9.375005,39.453125,9.375005,39.453125ZM9.098785,39.338725C9.025535,39.265425,8.984375,39.166125,8.984375,39.062525C8.984375,39.062525,6.640625,39.062525,6.640625,39.062525C6.640625,39.787625,6.928711,40.483125,7.441505,40.995925C7.441505,40.995925,9.098785,39.338725,9.098785,39.338725C9.098785,39.338725,9.098785,39.338725,9.098785,39.338725ZM8.984375,39.062525C8.984375,39.062525,8.984375,21.875005,8.984375,21.875005C8.984375,21.875005,6.640625,21.875005,6.640625,21.875005C6.640625,21.875005,6.640625,39.062525,6.640625,39.062525C6.640625,39.062525,8.984375,39.062525,8.984375,39.062525C8.984375,39.062525,8.984375,39.062525,8.984375,39.062525Z"
        fill="#FFFFFF" fill-opacity="1" />
    </g>
    <g>
      <path
        d="M7.812516357421875,21.87491396484375C7.812516357421875,21.87491396484375,6.680756357421875,22.17901396484375,6.680756357421875,22.17901396484375C6.848616357421875,22.80381396484375,7.491166357421875,23.17451396484375,8.116126357421875,23.00681396484375C8.116126357421875,23.00681396484375,7.812516357421875,21.87491396484375,7.812516357421875,21.87491396484375C7.812516357421875,21.87491396484375,7.812516357421875,21.87491396484375,7.812516357421875,21.87491396484375ZM41.01566635742188,12.96873396484375C41.01566635742188,12.96873396484375,41.319266357421874,14.10059396484375,41.319266357421874,14.10059396484375C41.619566357421874,14.02006396484375,41.875566357421874,13.82351396484375,42.03086635742188,13.55423396484375C42.186166357421875,13.28493396484375,42.22796635742188,12.96497396484375,42.14736635742187,12.66473396484375C42.14736635742187,12.66473396484375,41.01566635742188,12.96873396484375,41.01566635742188,12.96873396484375C41.01566635742188,12.96873396484375,41.01566635742188,12.96873396484375,41.01566635742188,12.96873396484375ZM39.39456635742187,6.93358396484375C39.39456635742187,6.93358396484375,38.260866357421875,7.23022396484375,38.260866357421875,7.23022396484375C38.260866357421875,7.23022396484375,38.26286635742188,7.2375839648437506,38.26286635742188,7.2375839648437506C38.26286635742188,7.2375839648437506,39.39456635742187,6.93358396484375,39.39456635742187,6.93358396484375C39.39456635742187,6.93358396484375,39.39456635742187,6.93358396484375,39.39456635742187,6.93358396484375ZM37.480466357421875,5.83983396484375C37.480466357421875,5.83983396484375,37.783766357421875,6.9718939648437495,37.783766357421875,6.9718939648437495C37.783766357421875,6.9718939648437495,37.800466357421875,6.96716396484375,37.800466357421875,6.96716396484375C37.800466357421875,6.96716396484375,37.480466357421875,5.83983396484375,37.480466357421875,5.83983396484375C37.480466357421875,5.83983396484375,37.480466357421875,5.83983396484375,37.480466357421875,5.83983396484375ZM7.304706357421875,13.92576396484375C7.304706357421875,13.92576396484375,7.602036357421875,15.05931396484375,7.602036357421875,15.05931396484375C7.602036357421875,15.05931396484375,7.608026357421875,15.05771396484375,7.608026357421875,15.05771396484375C7.608026357421875,15.05771396484375,7.304706357421875,13.92576396484375,7.304706357421875,13.92576396484375C7.304706357421875,13.92576396484375,7.304706357421875,13.92576396484375,7.304706357421875,13.92576396484375ZM6.191426357421875,15.83981396484375C6.191426357421875,15.83981396484375,5.059135457421875,16.14181396484375,5.059135457421875,16.14181396484375C5.059135457421875,16.14181396484375,5.059666657421875,16.14381396484375,5.059666657421875,16.14381396484375C5.059666657421875,16.14381396484375,6.191426357421875,15.83981396484375,6.191426357421875,15.83981396484375C6.191426357421875,15.83981396484375,6.191426357421875,15.83981396484375,6.191426357421875,15.83981396484375ZM8.116126357421875,23.00681396484375C8.116126357421875,23.00681396484375,41.319266357421874,14.10059396484375,41.319266357421874,14.10059396484375C41.319266357421874,14.10059396484375,40.712066357421875,11.83687396484375,40.712066357421875,11.83687396484375C40.712066357421875,11.83687396484375,7.5089163574218745,20.74311396484375,7.5089163574218745,20.74311396484375C7.5089163574218745,20.74311396484375,8.116126357421875,23.00681396484375,8.116126357421875,23.00681396484375C8.116126357421875,23.00681396484375,8.116126357421875,23.00681396484375,8.116126357421875,23.00681396484375ZM42.14736635742187,12.66473396484375C42.14736635742187,12.66473396484375,40.526266357421875,6.62958396484375,40.526266357421875,6.62958396484375C40.526266357421875,6.62958396484375,38.26286635742188,7.2375839648437506,38.26286635742188,7.2375839648437506C38.26286635742188,7.2375839648437506,39.883966357421876,13.27273396484375,39.883966357421876,13.27273396484375C39.883966357421876,13.27273396484375,42.14736635742187,12.66473396484375,42.14736635742187,12.66473396484375C42.14736635742187,12.66473396484375,42.14736635742187,12.66473396484375,42.14736635742187,12.66473396484375ZM40.52836635742187,6.63694396484375C40.436766357421874,6.2874639648437505,40.27656635742188,5.95975396484375,40.05676635742188,5.67300396484375C40.05676635742188,5.67300396484375,38.196466357421876,7.09846396484375,38.196466357421876,7.09846396484375C38.22646635742188,7.13765396484375,38.24836635742187,7.18245396484375,38.260866357421875,7.23022396484375C38.260866357421875,7.23022396484375,40.52836635742187,6.63694396484375,40.52836635742187,6.63694396484375C40.52836635742187,6.63694396484375,40.52836635742187,6.63694396484375,40.52836635742187,6.63694396484375ZM40.05676635742188,5.67300396484375C39.837066357421875,5.3862589648437496,39.56236635742187,5.14624096484375,39.24876635742187,4.96701396484375C39.24876635742187,4.96701396484375,38.085966357421874,7.00195396484375,38.085966357421874,7.00195396484375C38.128766357421874,7.02645396484375,38.166266357421875,7.059263964843749,38.196466357421876,7.09846396484375C38.196466357421876,7.09846396484375,40.05676635742188,5.67300396484375,40.05676635742188,5.67300396484375C40.05676635742188,5.67300396484375,40.05676635742188,5.67300396484375,40.05676635742188,5.67300396484375ZM39.24876635742187,4.96701396484375C38.93516635742188,4.78778696484375,38.588766357421875,4.67295926484375,38.23016635742187,4.62925616484375C38.23016635742187,4.62925616484375,37.94676635742187,6.95579396484375,37.94676635742187,6.95579396484375C37.995666357421875,6.96176396484375,38.04306635742188,6.97746396484375,38.085966357421874,7.00195396484375C38.085966357421874,7.00195396484375,39.24876635742187,4.96701396484375,39.24876635742187,4.96701396484375C39.24876635742187,4.96701396484375,39.24876635742187,4.96701396484375,39.24876635742187,4.96701396484375ZM38.23016635742187,4.62925616484375C37.871766357421876,4.58555146484375,37.508066357421875,4.61385148484375,37.160466357421875,4.71249696484375C37.160466357421875,4.71249696484375,37.800466357421875,6.96716396484375,37.800466357421875,6.96716396484375C37.84806635742188,6.95368396484375,37.897666357421876,6.9498139648437505,37.94676635742187,6.95579396484375C37.94676635742187,6.95579396484375,38.23016635742187,4.62925616484375,38.23016635742187,4.62925616484375C38.23016635742187,4.62925616484375,38.23016635742187,4.62925616484375,38.23016635742187,4.62925616484375ZM37.17726635742188,4.70789206484375C37.17726635742188,4.70789206484375,7.001386357421875,12.79383396484375,7.001386357421875,12.79383396484375C7.001386357421875,12.79383396484375,7.608026357421875,15.05771396484375,7.608026357421875,15.05771396484375C7.608026357421875,15.05771396484375,37.783766357421875,6.9717739648437504,37.783766357421875,6.9717739648437504C37.783766357421875,6.9717739648437504,37.17726635742188,4.70789206484375,37.17726635742188,4.70789206484375C37.17726635742188,4.70789206484375,37.17726635742188,4.70789206484375,37.17726635742188,4.70789206484375ZM7.007376357421875,12.79223396484375C6.659126357421875,12.88359396484375,6.332336357421875,13.04281396484375,6.045776357421875,13.26078396484375C6.045776357421875,13.26078396484375,7.464656357421875,15.12621396484375,7.464656357421875,15.12621396484375C7.505596357421875,15.09511396484375,7.552276357421875,15.07231396484375,7.602036357421875,15.05931396484375C7.602036357421875,15.05931396484375,7.007376357421875,12.79223396484375,7.007376357421875,12.79223396484375C7.007376357421875,12.79223396484375,7.007376357421875,12.79223396484375,7.007376357421875,12.79223396484375ZM6.045776357421875,13.26078396484375C5.7592093574218755,13.47873396484375,5.518513357421875,13.75115396484375,5.337498357421875,14.06237396484375C5.337498357421875,14.06237396484375,7.363476357421876,15.24071396484375,7.363476357421876,15.24071396484375C7.389336357421875,15.19631396484375,7.4237263574218755,15.15731396484375,7.464656357421875,15.12621396484375C7.464656357421875,15.12621396484375,6.045776357421875,13.26078396484375,6.045776357421875,13.26078396484375C6.045776357421875,13.26078396484375,6.045776357421875,13.26078396484375,6.045776357421875,13.26078396484375ZM5.337498357421875,14.06237396484375C5.156482357421875,14.37359396484375,5.038710457421875,14.71751396484375,4.990940157421875,15.07431396484375C4.990940157421875,15.07431396484375,7.313966357421875,15.38531396484375,7.313966357421875,15.38531396484375C7.320796357421875,15.33431396484375,7.337616357421875,15.28521396484375,7.363476357421876,15.24071396484375C7.363476357421876,15.24071396484375,5.337498357421875,14.06237396484375,5.337498357421875,14.06237396484375C5.337498357421875,14.06237396484375,5.337498357421875,14.06237396484375,5.337498357421875,14.06237396484375ZM4.990940157421875,15.07431396484375C4.943171357421875,15.43121396484375,4.966347934421875,15.79401396484375,5.059136957421875,16.14181396484375C5.059136957421875,16.14181396484375,7.323716357421874,15.53781396484375,7.323716357421874,15.53781396484375C7.3104563574218755,15.48811396484375,7.307146357421875,15.43631396484375,7.313966357421875,15.38531396484375C7.313966357421875,15.38531396484375,4.990940157421875,15.07431396484375,4.990940157421875,15.07431396484375C4.990940157421875,15.07431396484375,4.990940157421875,15.07431396484375,4.990940157421875,15.07431396484375ZM5.059666657421875,16.14381396484375C5.059666657421875,16.14381396484375,6.680756357421875,22.17901396484375,6.680756357421875,22.17901396484375C6.680756357421875,22.17901396484375,8.944286357421875,21.57101396484375,8.944286357421875,21.57101396484375C8.944286357421875,21.57101396484375,7.323186357421875,15.53581396484375,7.323186357421875,15.53581396484375C7.323186357421875,15.53581396484375,5.059666657421875,16.14381396484375,5.059666657421875,16.14381396484375C5.059666657421875,16.14381396484375,5.059666657421875,16.14381396484375,5.059666657421875,16.14381396484375Z"
        fill="#FFFFFF" fill-opacity="1" />
    </g>
    <g>
      <path
        d="M25.996242885742188,8.04772589453125C25.435792885742188,7.72403889453125,24.719056885742187,7.91597169453125,24.395366885742188,8.47642189453125C24.07167988574219,9.03687189453125,24.26361268574219,9.75361189453125,24.824062885742187,10.07730189453125C24.824062885742187,10.07730189453125,25.996242885742188,8.04772589453125,25.996242885742188,8.04772589453125C25.996242885742188,8.04772589453125,25.996242885742188,8.04772589453125,25.996242885742188,8.04772589453125ZM34.39438288574219,15.60464189453125C34.95478288574219,15.92832189453125,35.67158288574219,15.73640189453125,35.995282885742185,15.17595189453125C36.31898288574219,14.61549189453125,36.12698288574219,13.898761894531251,35.566582885742186,13.57507189453125C35.566582885742186,13.57507189453125,34.39438288574219,15.60464189453125,34.39438288574219,15.60464189453125C34.39438288574219,15.60464189453125,34.39438288574219,15.60464189453125,34.39438288574219,15.60464189453125ZM24.824062885742187,10.07730189453125C24.824062885742187,10.07730189453125,34.39438288574219,15.60464189453125,34.39438288574219,15.60464189453125C34.39438288574219,15.60464189453125,35.566582885742186,13.57507189453125,35.566582885742186,13.57507189453125C35.566582885742186,13.57507189453125,25.996242885742188,8.04772589453125,25.996242885742188,8.04772589453125C25.996242885742188,8.04772589453125,24.824062885742187,10.07730189453125,24.824062885742187,10.07730189453125C24.824062885742187,10.07730189453125,24.824062885742187,10.07730189453125,24.824062885742187,10.07730189453125Z"
        fill="#FFFFFF" fill-opacity="1" />
    </g>
    <g>
      <path
        d="M12.422924135742187,11.70058964453125C11.862754135742188,11.37640364453125,11.145852135742187,11.56770374453125,10.821668135742188,12.12786664453125C10.497482135742187,12.68802564453125,10.688782235742188,13.40493564453125,11.248945135742188,13.72912564453125C11.248945135742188,13.72912564453125,12.422924135742187,11.70058964453125,12.422924135742187,11.70058964453125C12.422924135742187,11.70058964453125,12.422924135742187,11.70058964453125,12.422924135742187,11.70058964453125ZM20.799764135742187,19.25646564453125C21.359864135742185,19.580655644531248,22.076764135742188,19.38935564453125,22.400964135742186,18.82918564453125C22.725164135742187,18.26902564453125,22.533864135742185,17.55212564453125,21.973664135742187,17.22793564453125C21.973664135742187,17.22793564453125,20.799764135742187,19.25646564453125,20.799764135742187,19.25646564453125C20.799764135742187,19.25646564453125,20.799764135742187,19.25646564453125,20.799764135742187,19.25646564453125ZM11.248945135742188,13.72912564453125C11.248945135742188,13.72912564453125,20.799764135742187,19.25646564453125,20.799764135742187,19.25646564453125C20.799764135742187,19.25646564453125,21.973664135742187,17.22793564453125,21.973664135742187,17.22793564453125C21.973664135742187,17.22793564453125,12.422924135742187,11.70058964453125,12.422924135742187,11.70058964453125C12.422924135742187,11.70058964453125,11.248945135742188,13.72912564453125,11.248945135742188,13.72912564453125C11.248945135742188,13.72912564453125,11.248945135742188,13.72912564453125,11.248945135742188,13.72912564453125Z"
        fill="#FFFFFF" fill-opacity="1" />
    </g>
  </g>
</svg>