<svg xmlns="http://www.w3.org/2000/svg" xmlns:xlink="http://www.w3.org/1999/xlink" fill="none" version="1.1" width="50"
  height="50" viewBox="0 0 50 50">
  <g>
    <g>
      <rect x="0" y="0" width="50" height="50" rx="10" fill="#FFFFFF" fill-opacity="1" />
    </g>
    <g>
      <g>
        <path
          d="M5.80145,0.147448C2.88481,0.757408,0.475441,3.04238,0.177637,6.11725C-0.129948,9.2931,0.177637,12.6576,0.177637,15.8506L0.177637,35.7067C0.177637,39.3587,-0.740979,44.3108,1.59975,47.3868C4.1283,50.7095,8.74072,49.9174,12.3949,49.9174L33.9205,49.9174L40.7079,49.9174C41.8293,49.9174,43.0995,50.0824,44.1985,49.8526C47.1152,49.2426,49.5246,46.9576,49.8224,43.8827C50.1299,40.7069,49.8224,37.3424,49.8224,34.1494L49.8224,14.2933C49.8224,10.6413,50.741,5.6892,48.4002,2.61324C45.8717,-0.709537,41.2593,0.0825596,37.6051,0.0825596L16.0795,0.0825596L9.2921,0.0825596C8.17068,0.0825596,6.90053,-0.082404,5.80145,0.147448ZM23.4486,17.7973L22.0911,21.496L24.4182,21.496L22.479,26.168L24.2243,26.3627C24.0327,26.8847,23.7749,27.8681,23.384,28.2769C23.0975,28.5765,22.6587,28.504,22.2851,28.504C21.4397,28.504,19.7315,28.8555,19.2792,27.92C19.0718,27.4909,19.3695,26.9497,19.5378,26.5573C19.8895,25.7373,20.3566,24.8997,20.5397,24.0267C20.1179,24.0267,19.5847,24.1103,19.1823,23.9618C17.6738,23.4051,19.3518,20.9708,19.6994,20.1333C19.9435,19.5452,20.2339,18.2675,20.766,17.8946C21.513,17.3711,22.6503,17.734,23.4486,17.7973ZM8.12855,30.0614C8.66198,30.0614,9.45449,30.2204,9.77691,29.672C10.12,29.0885,9.87387,27.8052,9.87387,27.1413L9.87387,20.7173C9.87387,20.1151,9.571,18.2771,10.1001,17.8946C10.5353,17.5801,12.3625,17.6467,12.5565,18.1866C12.874,19.0704,12.5888,20.5543,12.5888,21.496L12.5888,27.7253C12.5888,28.7929,12.7729,30.035,12.3303,31.0347C11.908,31.9883,9.94431,32.8397,8.96889,32.1054C8.5397,31.7822,8.23429,30.5656,8.12855,30.0614ZM37.6051,17.7973L37.6051,18.7706C38.3282,18.7706,39.2362,18.622,39.9322,18.8355C42.2547,19.5479,42.0654,21.8378,42.0654,23.832C42.4526,23.832,42.8496,23.8017,43.2289,23.8969C45.4578,24.4562,45.1682,26.6931,45.1682,28.504C45.1682,29.4688,45.3487,30.6107,44.7157,31.424C44.0184,32.32,42.8769,32.2027,41.8714,32.2027C41.5589,32.2027,41.0447,32.3021,40.7725,32.1054C40.2638,31.7377,40.0392,30.6444,39.9322,30.0614C40.5696,30.0614,41.7198,30.2804,42.227,29.8018C42.8249,29.2376,42.5801,27.0313,41.8714,26.6547C41.4959,26.4551,40.9238,26.5573,40.514,26.5573L37.6051,26.5573L37.6051,32.2027L34.8902,32.2027L34.8902,26.5573L32.1752,26.5573L32.1752,23.832L34.8902,23.832L34.8902,21.496L33.1448,21.496L33.1448,18.7706L34.8902,18.7706L34.8902,17.7973L37.6051,17.7973ZM31.3995,18.7706L31.3995,21.496L29.8481,21.496L29.8481,29.672L32.3691,29.672L32.3691,32.2027L23.4486,32.2027L24.4829,29.7694L26.9392,29.672L26.9392,21.496L25.3878,21.496L25.3878,18.7706L31.3995,18.7706ZM42.4532,21.496C42.4532,20.9427,42.3531,20.2776,42.5179,19.744C43.1664,17.6429,46.3218,19.3363,44.748,21.0742C44.569,21.2718,44.2546,21.3684,44.0046,21.4311C43.5081,21.5557,42.9613,21.496,42.4532,21.496ZM8.12855,21.496L7.32053,28.6987L5.99538,31.0347L4.83183,27.92L5.4136,21.496L8.12855,21.496ZM17.0491,21.496L17.6309,27.92L16.4673,30.84L16.0795,30.84C15.0387,29.1858,14.9056,27.4796,14.722,25.584C14.5916,24.2381,14.3341,22.8509,14.3341,21.496L17.0491,21.496ZM37.6051,21.496L37.6051,23.832L39.3504,23.832L39.3504,21.496L37.6051,21.496ZM23.0608,29.672L22.0911,32.2027L17.8248,32.2027L18.859,29.5747L20.3458,29.6071L23.0608,29.672Z"
          fill="#FF2842" fill-opacity="1" style="mix-blend-mode:passthrough" />
      </g>
    </g>
  </g>
</svg>